<svg width="57" height="50" viewBox="0 0 57 50" fill="none" xmlns="http://www.w3.org/2000/svg">
<path d="M14.3549 24.75C14.0787 24.75 13.8549 24.5261 13.8549 24.25V22.8327C13.8549 22.5935 13.6849 22.3895 13.4527 22.332C12.5118 22.0992 11.6878 21.7135 10.9809 21.175C10.2897 20.6485 9.75597 19.9362 9.37966 19.0379C9.27376 18.7851 9.41347 18.5022 9.67218 18.4118L11.0634 17.9256C11.322 17.8352 11.6025 17.9712 11.7186 18.2192C12.0207 18.8644 12.424 19.3711 12.9287 19.7396C13.547 20.191 14.3584 20.4167 15.3629 20.4167C16.2216 20.4167 16.9496 20.2498 17.547 19.9162C18.1443 19.5825 18.4425 19.0632 18.4417 18.3583C18.4417 17.7264 18.2113 17.2255 17.7505 16.8558C17.2898 16.486 16.2216 16.066 14.546 15.5958C12.7448 15.1083 11.5091 14.5262 10.8389 13.8495C10.1686 13.1728 9.83353 12.3466 9.83353 11.3708C9.83353 10.1972 10.2734 9.28542 11.153 8.63542C11.8895 8.09122 12.6407 7.74319 13.4065 7.59133C13.6589 7.54129 13.8549 7.32885 13.8549 7.07159V5.75C13.8549 5.47386 14.0787 5.25 14.3549 5.25H15.8682C16.1443 5.25 16.3682 5.47386 16.3682 5.75V7.08923C16.3682 7.33897 16.5531 7.54839 16.7981 7.59672C17.6543 7.76558 18.3751 8.07137 18.9607 8.51408C19.4932 8.91666 19.9133 9.38788 20.221 9.92774C20.362 10.1751 20.2296 10.4789 19.9628 10.5783L18.5716 11.0969C18.3226 11.1898 18.0486 11.0686 17.9105 10.8415C17.6842 10.4694 17.4005 10.1764 17.0594 9.9625C16.5986 9.67361 15.9703 9.52917 15.1744 9.52917C14.2528 9.52917 13.5512 9.70539 13.0694 10.0578C12.5877 10.4103 12.3469 10.8479 12.3469 11.3708C12.3469 11.9667 12.661 12.4361 13.2894 12.7792C13.9177 13.1222 15.0068 13.4833 16.5567 13.8625C18.0019 14.2236 19.0964 14.7971 19.8404 15.5828C20.5843 16.3686 20.9559 17.2757 20.955 18.3042C20.955 19.5861 20.5152 20.5611 19.6355 21.2292C18.8563 21.821 17.9127 22.2144 16.8047 22.4095C16.5564 22.4532 16.3682 22.6642 16.3682 22.9163V24.25C16.3682 24.5261 16.1443 24.75 15.8682 24.75H14.3549Z" fill="#FFC900"/>
<path d="M48.3981 8.11025C46.4034 8.55909 45.0374 10.328 45.7679 12.0234L52.0846 26.6795C52.5279 26.3727 53.0876 26.197 53.6732 26.1969C54.6214 26.1811 55.6412 26.1837 56.5557 26.2311L53.0091 10.3872C52.6634 8.84342 50.9201 7.91403 49.1533 8.00629C48.901 8.01951 48.6474 8.05418 48.3981 8.11025ZM49.5032 10.8041C49.9635 10.8041 50.3366 11.1174 50.3366 11.5039C50.3366 11.8904 49.9635 12.2037 49.5032 12.2037C49.043 12.2037 48.6699 11.8903 48.6699 11.5039C48.6699 11.1174 49.043 10.8041 49.5032 10.8041ZM30.0111 15.7601C27.9376 16.5184 26.6755 18.1537 26.0332 19.6677L25.3415 21.2997H35.3935C35.6748 20.6596 36.0645 20.1065 37.2295 19.5379L45.374 15.2216L44.2005 12.4989C43.9816 11.9908 43.8925 11.4804 43.906 10.9832L30.0111 15.7601ZM24.5081 22.6993C23.1337 22.6993 22.1624 23.6766 22.0163 24.7194L22.0352 24.6319L20.5215 29.6986H9.50425C8.13367 29.6986 7.00101 30.6457 7.00101 31.7966V36.6993C7.00101 37.8503 8.13367 38.7959 9.50425 38.7959H37.8392C39.2099 38.7959 40.3733 37.8521 40.3425 36.6828V31.7966C40.3416 31.708 40.3204 31.6204 40.2807 31.5382L36.9474 24.5389C36.7679 24.1622 36.5637 23.7515 36.1954 23.3812C35.8272 23.0108 35.216 22.6992 34.5109 22.6992L24.5081 22.6993ZM26.165 25.4999H26.1745H28.6729V31.0995H24.8399C24.2895 31.1003 23.8891 30.6612 24.0342 30.2153L25.3688 26.0206C25.4646 25.7165 25.7906 25.5036 26.165 25.4999ZM30.3398 25.4999H33.0156C33.3509 25.4997 33.6535 25.6683 33.7838 25.9277L36.9398 32.2259C36.9842 32.3121 37.0075 32.4051 37.0081 32.4992V35.2998C37.0065 35.6841 36.6357 35.9953 36.178 35.9968H31.1764C30.8977 35.9975 30.6367 35.8812 30.4814 35.6866L30.3397 35.5075L30.3398 25.4999ZM53.6732 27.5966C53.4086 27.5966 53.1597 27.702 53.0026 27.8808L45.5042 36.2756C45.0913 36.7363 45.4822 37.3952 46.1683 37.3964H51.1699C54.3871 37.3964 57 35.2009 57 32.4992V28.299C57.0017 27.9125 56.6301 27.598 56.1699 27.5965L53.6732 27.5966ZM11.1585 32.4883C11.6264 32.483 12.0071 32.8033 12.0016 33.1962V35.2998C12.0268 36.254 10.3094 36.254 10.335 35.2998V33.1962C10.3287 32.8098 10.6983 32.4928 11.1585 32.4883ZM14.4935 32.4883C14.9614 32.483 15.342 32.8033 15.3366 33.1962V35.2998C15.3618 36.2532 13.6454 36.2532 13.6699 35.2998V33.1962C13.6636 32.8098 14.0333 32.4928 14.4935 32.4883ZM17.8219 32.4883C18.2917 32.4803 18.6755 32.8017 18.6699 33.1962V35.2998C18.6447 36.2121 17.0277 36.2121 17.0032 35.2998V33.1962C16.9969 32.8113 17.3636 32.495 17.8219 32.4883ZM12.8382 40.1956C9.62098 40.1956 7 42.3925 7 45.0942C7 47.7959 9.62098 49.99 12.8382 49.99H38.6699C41.8872 49.99 44.5 47.7959 44.5 45.0942C44.5 42.3925 41.8872 40.1956 38.6699 40.1956H12.8382ZM14.5065 42.9961C15.8774 42.9961 17.0032 43.943 17.0032 45.0942C17.0032 46.2453 15.8774 47.1963 14.5065 47.1963C13.1357 47.1963 12.0016 46.2453 12.0016 45.0942C12.0016 43.943 13.1357 42.9961 14.5065 42.9961ZM22.0049 42.9961C23.3757 42.9961 24.5016 43.943 24.5016 45.0942C24.5016 46.2453 23.3757 47.1963 22.0049 47.1963C20.634 47.1963 19.5 46.2453 19.5 45.0942C19.5 43.943 20.634 42.9961 22.0049 42.9961ZM29.5032 42.9961C30.8741 42.9961 32 43.943 32 45.0942C32 46.2453 30.8741 47.1963 29.5032 47.1963C28.1324 47.1963 27.0065 46.2453 27.0065 45.0942C27.0066 43.943 28.1324 42.9961 29.5032 42.9961ZM37.0016 42.9961C38.3725 42.9961 39.5065 43.943 39.5065 45.0942C39.5065 46.2453 38.3725 47.1963 37.0016 47.1963C35.6308 47.1963 34.5049 46.2453 34.5049 45.0942C34.5049 43.943 35.6308 42.9961 37.0016 42.9961Z" fill="#FFC900"/>
</svg>
