<svg width="50" height="42" viewBox="0 0 50 42" fill="none" xmlns="http://www.w3.org/2000/svg">
<path d="M43.6937 27.556H6.30625C5.72968 20.8415 9.62187 14.5495 15.8875 11.3649L17.2078 21.2863C17.3031 22.0067 18.0766 22.5316 18.9328 22.445C19.7922 22.3636 20.4094 21.7154 20.3125 20.995L18.7594 9.32704C18.7141 8.95963 18.8562 8.59091 19.1484 8.31928C19.4547 8.03585 19.8922 7.87314 20.3547 7.87314H29.6453C30.1062 7.87314 30.5453 8.03585 30.85 8.31928C31.1437 8.59222 31.2859 8.95438 31.2422 9.30474L29.6875 20.995C29.5906 21.7154 30.2078 22.3636 31.0672 22.4437C31.9172 22.5276 32.6969 22.0093 32.7922 21.285L34.1125 11.3636C40.3781 14.5495 44.2703 20.8415 43.6937 27.556Z" fill="#FFC900"/>
<path d="M46.875 32.1486C46.875 33.2338 45.8234 34.1169 44.5312 34.1169H5.46875C4.17656 34.1169 3.125 33.2338 3.125 32.1486C3.125 31.0634 4.17656 30.1803 5.46875 30.1803H44.5312C45.8234 30.1803 46.875 31.0634 46.875 32.1486Z" fill="#FFC900"/>
</svg>
