<svg width="50" height="50" viewBox="0 0 50 50" fill="none" xmlns="http://www.w3.org/2000/svg">
<path d="M17.1242 10.7567C19.3915 11.9544 22.1998 11.0872 23.3973 8.82011C23.4962 8.63276 23.5797 8.4417 23.6509 8.24817L15.5171 3.9516C15.3974 4.11934 15.2866 4.29617 15.1876 4.48331C13.99 6.75064 14.8572 9.55917 17.1242 10.7567Z" fill="#FFC900"/>
<path d="M15.5656 3.46404L15.639 3.50282L24.0788 7.96115L24.1519 7.99974C24.4562 8.16047 24.8326 8.0443 24.9933 7.73997C25.1538 7.43605 25.0379 7.05929 24.7337 6.89857L24.6578 6.85854C25.3624 5.43715 25.2927 3.82531 24.6013 2.51266L24.4238 2.84856C24.2967 3.08914 23.9988 3.18137 23.7582 3.05427C23.5176 2.92717 23.4256 2.62882 23.5527 2.38824L23.9713 1.59574C23.7013 1.28728 23.3887 1.00977 23.035 0.773729L22.4812 1.82229C22.3541 2.06286 22.0562 2.15509 21.8156 2.02799C21.5748 1.90069 21.483 1.60255 21.6101 1.36197L22.1639 0.313618C21.7696 0.154539 21.3642 0.0528199 20.9573 0.0037139L20.5387 0.796218C20.4116 1.0368 20.1136 1.12902 19.8726 1.00172C19.6321 0.874623 19.5405 0.576479 19.6673 0.335901L19.8446 0C18.3708 0.168982 17.0002 1.01988 16.2235 2.40289L16.1474 2.36266C15.8435 2.20214 15.4669 2.31871 15.3064 2.62284C15.1455 2.92717 15.2616 3.30331 15.5656 3.46404Z" fill="#FFC900"/>
<path d="M23.1774 43.0208L19.4635 49.4169H50L48.1431 43.0208L43.3975 41.1638L40.3026 34.355L33.7001 32.2917L33.1643 32.9423C31.7466 31.8254 30.1919 30.6005 30.1919 30.6005L28.2304 33.0902L27.1476 32.7005L26.8455 33.084L23.8191 30.6888C24.0937 30.3143 24.2107 29.8276 24.0976 29.3398L22.3166 21.6562L21.5623 13.9178C21.6165 13.298 21.3031 12.6772 20.7182 12.3683L20.5385 12.2734C20.1644 13.7777 19.7569 15.6467 19.6273 17.0965C19.558 17.8715 19.2551 18.9531 18.8501 20.1203L19.0416 22.0839C19.0484 22.1555 19.0601 22.2262 19.0764 22.2964L20.3932 27.9772L16.8545 25.1765L16.9878 24.7311L17.3546 23.5053C17.3268 23.497 15.0221 22.8052 12.8881 22.0374L11.9889 21.3258L12.5932 19.8004C15.0085 20.7343 18.1211 21.6687 18.2577 21.7096L18.8493 19.733C18.8167 19.7233 15.6947 18.7859 13.3533 17.8822L15.097 13.4821L17.0557 11.2513C17.0045 11.2263 16.9525 11.2028 16.9022 11.1759C16.0713 10.7371 15.3974 10.0905 14.9231 9.30683L14.6604 9.16817L14.5215 13.2539L12.7779 17.654C10.453 16.7088 7.53612 15.253 7.50579 15.2379L6.59588 17.0573L6.59217 17.0542L4.8128 15.646L6.96975 10.8986L9.77725 11.3249C10.4398 10.3102 11.085 9.19211 11.5979 8.2624L6.2313 7.4474C6.22718 7.44678 6.22305 7.44678 6.21892 7.44616C6.17621 7.43997 6.1335 7.43605 6.09059 7.43337C6.07862 7.43255 6.06645 7.4311 6.05448 7.43069C6.01239 7.42883 5.97071 7.42945 5.92883 7.43089C5.91541 7.43131 5.902 7.4311 5.8888 7.43172C5.85083 7.43399 5.81308 7.43832 5.77552 7.44327C5.75902 7.44534 5.7421 7.44658 5.7258 7.44926C5.69155 7.45462 5.65812 7.46226 5.62429 7.46989C5.60551 7.47402 5.58653 7.47732 5.56775 7.48227C5.53495 7.49073 5.50296 7.50167 5.47078 7.51219C5.45262 7.51817 5.43405 7.52312 5.41631 7.52973C5.38185 7.54231 5.34822 7.55717 5.31459 7.57223C5.30035 7.57863 5.2855 7.58399 5.27147 7.5908C5.23412 7.60875 5.19781 7.62876 5.16191 7.6494C5.15262 7.65476 5.14272 7.65951 5.13343 7.66508C5.09506 7.68798 5.05812 7.71315 5.02181 7.73935C5.01541 7.74389 5.00881 7.74781 5.00241 7.75256C4.96713 7.77856 4.93329 7.80682 4.90008 7.83571C4.89306 7.84169 4.88584 7.84726 4.87903 7.85325C4.84994 7.87945 4.8227 7.90731 4.79526 7.93557C4.78494 7.9463 4.77401 7.95641 4.7639 7.96735C4.74224 7.99108 4.72222 8.01625 4.702 8.04142C4.68756 8.05916 4.6727 8.07649 4.65908 8.09486C4.64423 8.11487 4.63061 8.13612 4.61658 8.15696C4.59925 8.18234 4.58192 8.20772 4.56624 8.23434C4.55613 8.25125 4.54705 8.2692 4.53756 8.28674C4.52023 8.31831 4.50331 8.34988 4.48804 8.38268C4.48577 8.38743 4.48288 8.39197 4.48082 8.39671L1.99044 13.8782L0 16.4045L1.1346 17.2983L1.80021 16.4536C1.95826 16.655 2.16479 16.8231 2.41403 16.9362C2.63563 17.0369 2.86754 17.0846 3.09595 17.0846C3.43247 17.0846 3.75908 16.9783 4.03412 16.7885L6.07181 18.4011L8.13344 20.0328C6.93385 19.4707 6.02848 19.0189 6.01177 19.0104L5.43859 20.1566L5.08907 20.8556C5.10001 20.861 5.13323 20.8777 5.18274 20.9022C5.7128 21.1653 8.32965 22.4542 10.5235 23.3447L9.71968 25.3734C6.48467 24.0599 4.83343 22.8576 4.62504 22.7006C4.51858 23.209 4.47277 23.7877 4.54787 24.2551L5.13075 34.3575L0.964994 45.1156C0.45062 46.4439 1.11066 47.9378 2.43879 48.4519C2.74498 48.5706 3.05984 48.6267 3.36954 48.6267C4.40365 48.6267 5.37937 48.0005 5.77511 46.9783L10.1424 35.699C10.2757 35.3553 10.3335 34.9872 10.3123 34.6193L9.92972 27.9879L14.6711 34.1677L10.9543 45.8128C10.5213 47.1698 11.2702 48.6209 12.627 49.054C12.8881 49.1371 13.1519 49.177 13.4119 49.1768C14.5042 49.1768 15.5185 48.4773 15.8682 47.3813L19.9948 34.4516C20.2517 33.6469 20.0982 32.7675 19.584 32.0974L15.7785 27.1372C15.3516 27.085 13.3742 26.7941 10.2941 25.6032L11.0986 23.5731C11.9804 23.9142 12.9545 24.2551 13.8436 24.5526L16.2112 26.4262L20.8952 30.1333C21.0854 30.8555 21.7292 31.3439 22.4476 31.3618L25.9923 34.1672L25.6903 34.5508L26.3227 35.5123L24.3611 38.0021C24.3611 38.0021 26.3369 39.5588 27.865 40.7625L26.8917 42.4018L23.1774 43.0208ZM6.70544 17.1444C7.29698 17.4378 9.86205 18.6976 12.018 19.5727L11.4821 20.9247L6.70544 17.1444Z" fill="#FFC900"/>
</svg>
