<svg width="50" height="42" viewBox="0 0 50 42" fill="none" xmlns="http://www.w3.org/2000/svg">
<path d="M41.3981 0.110248C39.4034 0.559088 38.0374 2.328 38.7679 4.02336L45.0846 18.6795C45.5279 18.3727 46.0876 18.197 46.6732 18.1969C47.6214 18.1811 48.6412 18.1837 49.5557 18.2311L46.0091 2.38725C45.6634 0.843418 43.9201 -0.0859683 42.1533 0.00628592C41.901 0.0195104 41.6474 0.0541762 41.3981 0.110248ZM42.5032 2.80415C42.9635 2.80415 43.3366 3.11737 43.3366 3.50387C43.3366 3.89037 42.9635 4.20368 42.5032 4.20368C42.043 4.20368 41.6699 3.89035 41.6699 3.50387C41.6699 3.1174 42.043 2.80415 42.5032 2.80415ZM23.0111 7.76011C20.9376 8.5184 19.6755 10.1537 19.0332 11.6677L18.3415 13.2997H28.3935C28.6748 12.6596 29.0645 12.1065 30.2295 11.5379L38.374 7.22157L37.2005 4.49894C36.9816 3.99077 36.8925 3.48036 36.906 2.98317L23.0111 7.76011ZM17.5081 14.6993C16.1337 14.6993 15.1624 15.6766 15.0163 16.7194L15.0352 16.6319L13.5215 21.6986H2.50425C1.13367 21.6986 0.00100793 22.6457 0.00100793 23.7966V28.6993C0.00100793 29.8503 1.13367 30.7959 2.50425 30.7959H30.8392C32.2099 30.7959 33.3733 29.8521 33.3425 28.6828V23.7966C33.3416 23.708 33.3204 23.6204 33.2807 23.5382L29.9474 16.5389C29.7679 16.1622 29.5637 15.7515 29.1954 15.3812C28.8272 15.0108 28.216 14.6992 27.5109 14.6992L17.5081 14.6993ZM19.165 17.4999H19.1745H21.6729V23.0995H17.8399C17.2895 23.1003 16.8891 22.6612 17.0342 22.2153L18.3688 18.0206C18.4646 17.7165 18.7906 17.5036 19.165 17.4999ZM23.3398 17.4999H26.0156C26.3509 17.4997 26.6535 17.6683 26.7838 17.9277L29.9398 24.2259C29.9842 24.3121 30.0075 24.4051 30.0081 24.4992V27.2998C30.0065 27.6841 29.6357 27.9953 29.178 27.9968H24.1764C23.8977 27.9975 23.6367 27.8812 23.4814 27.6866L23.3397 27.5075L23.3398 17.4999ZM46.6732 19.5966C46.4086 19.5966 46.1597 19.702 46.0026 19.8808L38.5042 28.2756C38.0913 28.7363 38.4822 29.3952 39.1683 29.3964H44.1699C47.3871 29.3964 50 27.2009 50 24.4992V20.299C50.0017 19.9125 49.6301 19.598 49.1699 19.5965L46.6732 19.5966ZM4.15852 24.4883C4.62639 24.483 5.00709 24.8033 5.00164 25.1962V27.2998C5.02683 28.254 3.30945 28.254 3.33496 27.2998V25.1962C3.32866 24.8098 3.6983 24.4928 4.15852 24.4883ZM7.49348 24.4883C7.96135 24.483 8.34205 24.8033 8.3366 25.1962V27.2998C8.3618 28.2532 6.64542 28.2532 6.66992 27.2998V25.1962C6.66362 24.8098 7.03326 24.4928 7.49348 24.4883ZM10.8219 24.4883C11.2917 24.4803 11.6755 24.8017 11.6699 25.1962V27.2998C11.6447 28.2121 10.0277 28.2121 10.0032 27.2998V25.1962C9.99691 24.8113 10.3636 24.495 10.8219 24.4883ZM5.8382 32.1956C2.62098 32.1956 0 34.3925 0 37.0942C0 39.7959 2.62098 41.99 5.8382 41.99H31.6699C34.8872 41.99 37.5 39.7959 37.5 37.0942C37.5 34.3925 34.8872 32.1956 31.6699 32.1956H5.8382ZM7.50652 34.9961C8.87735 34.9961 10.0032 35.943 10.0032 37.0942C10.0032 38.2453 8.87739 39.1963 7.50652 39.1963C6.13565 39.1963 5.00164 38.2453 5.00164 37.0942C5.00164 35.943 6.13572 34.9961 7.50652 34.9961ZM15.0049 34.9961C16.3757 34.9961 17.5016 35.943 17.5016 37.0942C17.5016 38.2453 16.3757 39.1963 15.0049 39.1963C13.634 39.1963 12.5 38.2453 12.5 37.0942C12.5 35.943 13.634 34.9961 15.0049 34.9961ZM22.5032 34.9961C23.8741 34.9961 25 35.943 25 37.0942C25 38.2453 23.8741 39.1963 22.5032 39.1963C21.1324 39.1963 20.0065 38.2453 20.0065 37.0942C20.0066 35.943 21.1324 34.9961 22.5032 34.9961ZM30.0016 34.9961C31.3725 34.9961 32.5065 35.943 32.5065 37.0942C32.5065 38.2453 31.3725 39.1963 30.0016 39.1963C28.6308 39.1963 27.5049 38.2453 27.5049 37.0942C27.5049 35.943 28.6308 34.9961 30.0016 34.9961Z" fill="#FFC900"/>
</svg>
