<svg width="50" height="42" viewBox="0 0 50 42" fill="none" xmlns="http://www.w3.org/2000/svg">
<path d="M34.94 32.1725C32.1837 33.9511 28.7367 35.0102 25.0001 35.0102C21.2635 35.0102 17.8164 33.9511 15.0602 32.1725V41.99H34.94V32.1725Z" fill="#FFC900"/>
<path d="M38.2945 30.5401H37.8694V41.99H50V40.3704C50 34.95 44.749 30.5401 38.2945 30.5401Z" fill="#FFC900"/>
<path d="M12.1306 30.5401H11.7055C5.25112 30.5401 0 34.95 0 40.3704V41.99H12.1306V30.5401Z" fill="#FFC900"/>
<path d="M30.8609 2.61006V11.5134H38.3356C38.0789 9.51144 37.1972 7.62296 35.7434 5.99395C34.4623 4.5584 32.7699 3.39365 30.8609 2.61006Z" fill="#FFC900"/>
<path d="M14.2566 5.99412C12.8028 7.6232 11.9211 9.51152 11.6645 11.5135H19.1393V2.61006C17.23 3.39365 15.5376 4.55849 14.2566 5.99412Z" fill="#FFC900"/>
<path d="M25 32.55C32.3977 32.55 38.4162 27.4957 38.4162 21.2831V19.5113H11.5839V21.2831C11.5839 27.4957 17.6024 32.55 25 32.55Z" fill="#FFC900"/>
<path d="M27.9313 0H22.0688V11.5135H27.9313V0Z" fill="#FFC900"/>
<path d="M41.7132 13.9737H8.28691V17.0512H41.7132V13.9737Z" fill="#FFC900"/>
</svg>
