<svg width="119" height="77" viewBox="0 0 119 77" fill="none" xmlns="http://www.w3.org/2000/svg">
<g clip-path="url(#clip0_62_11)">
<path d="M47.4746 0C46.599 2.13245 45.7668 4.2901 44.9763 6.47464C44.6195 7.46609 44.1642 8.31806 43.6088 9.03223C41.4892 11.7747 39.3395 14.5474 37.1599 17.352C36.6512 18.0073 36.6262 18.7165 37.0831 19.476C37.1615 19.6071 37.1565 19.7348 37.0698 19.8608L36.4111 20.8035C36.0508 20.5145 35.7173 20.6086 35.4121 21.0875C33.9229 23.4149 32.3903 25.7692 30.8159 28.1486C30.6859 28.3402 30.7376 28.4377 30.971 28.441H31.4063C31.3029 28.9351 31.0428 29.2056 30.6258 29.251C29.1149 29.4073 28.3194 30.066 28.2377 31.2272L27.7874 31.333C27.599 31.375 27.4806 31.5649 27.5223 31.7565C27.5256 31.7699 27.5289 31.7817 27.5323 31.7951L29.1816 36.6095C29.4151 37.2867 29.2233 37.8077 28.6096 38.1706C28.5212 38.2227 28.4245 38.2446 28.3194 38.2345C27.7474 38.1824 27.3722 37.9001 27.1937 37.3876C26.5883 35.6433 25.9696 33.7075 25.3359 31.5801C24.8906 30.0878 26.3949 29.3602 27.579 29.214C27.8158 29.1855 28.0259 29.0544 28.156 28.8578L34.0012 19.9028C34.0863 19.7718 34.0913 19.6373 34.0196 19.4995C33.6193 18.7182 33.6627 18.0107 34.1463 17.3755C36.1226 14.786 38.1922 12.1141 40.3552 9.36328C41.0156 8.52475 41.5042 7.66774 41.8227 6.79224C42.6166 4.5993 43.4304 2.46013 44.2659 0.376413C44.3526 0.154598 44.5661 0.0100825 44.8012 0.0100825L47.4762 0.00168042L47.4746 0Z" fill="black"/>
<path d="M47.4746 3.6364e-05L52.8429 0.026923C53.3532 0.026923 53.7868 0.408377 53.8602 0.919224L54.1053 2.62989C54.1304 2.80129 54.2188 2.92564 54.3738 3.00462L59.6287 5.66808C59.7405 5.72353 59.8722 5.71345 59.969 5.64119C60.9729 4.88164 61.65 5.45298 62.5856 5.93358C66.2945 7.84926 69.9201 9.72124 73.4623 11.5479C74.0526 11.8537 74.3595 12.3813 74.3845 13.1308C74.3878 13.2955 74.4712 13.3913 74.6347 13.4198C76.851 13.8013 78.6188 14.9541 79.9396 16.8798C81.2087 18.7316 82.4361 20.6036 83.6235 22.4941C83.6836 22.5848 83.782 22.6403 83.887 22.6403L99.0914 22.6352C99.5333 22.6352 99.8285 22.8436 99.9769 23.262C100.567 24.9458 100.939 26.6766 101.094 28.4512C101.111 28.6158 101.246 28.7419 101.408 28.7435C103.584 28.7839 105.745 28.8847 107.888 29.046C109.038 29.1334 109.765 30.1131 110.513 30.8575C110.655 31.0037 110.734 31.1801 110.745 31.3835C110.975 35.6702 111.069 39.9805 111.027 44.316C111.024 44.6151 110.875 44.7697 110.582 44.7781L100.696 45.0621C100.467 45.0688 100.25 45.1713 100.1 45.3461L99.3282 46.2619C99.2015 46.4148 99.0397 46.4938 98.8429 46.5005C95.5859 46.6517 92.4356 46.7559 89.0335 47.1693C85.7732 47.5592 82.4628 47.8885 79.1007 48.1523C78.889 48.1708 78.6555 48.3389 78.402 48.6565C78.1118 48.7573 77.8466 49.011 77.6065 49.416C77.3347 49.5723 77.1512 49.8546 77.0562 50.2629C76.886 50.4427 76.7793 50.6679 76.7343 50.9351C76.5825 51.2611 76.5025 51.5569 76.4941 51.8224L76.2857 52.9718L76.2773 54.0103C76.284 55.4907 76.6893 56.8435 77.4948 58.0685C77.5531 58.1609 77.5248 58.2819 77.4347 58.3407C77.4014 58.3625 77.3613 58.3726 77.323 58.3709L76.1106 58.334L65.1021 58.3289C63.3827 57.2552 62.4705 55.8453 62.3688 54.101C62.7774 54.0405 63.1726 54.0439 63.5545 54.1145L66.6297 54.1464C66.7581 54.1464 66.8615 54.0422 66.8615 53.9128C66.8615 53.9094 66.8615 53.9061 66.8615 53.9027L66.8565 53.733C66.8482 53.486 66.7181 53.3616 66.4713 53.3616L63.7329 53.3751L62.9024 53.3112L62.6339 52.7164L63.6462 52.6575L66.4663 52.671C66.6814 52.671 66.8565 52.4979 66.8615 52.2828L66.8665 52.1232C66.8715 51.9618 66.7431 51.8257 66.5814 51.8207C66.5764 51.8207 66.5714 51.8207 66.568 51.8207L63.5428 51.8442L63.206 51.7988C62.9691 51.6224 62.9008 51.4023 62.9975 51.1401L63.3427 51.0662L66.5347 51.0931C66.6714 51.0964 66.8032 51.041 66.8982 50.9418C67.0733 50.7519 67.1434 50.5436 67.1067 50.315C67.0883 50.2058 67.0233 50.152 66.9116 50.1554L64.0648 50.2108C64.1615 50.3335 64.0648 50.3184 63.7746 50.1655C63.7896 49.8244 63.9814 49.6513 64.3517 49.6479C65.3273 49.6328 66.3129 49.5706 67.3085 49.4597C67.4602 49.4446 67.5803 49.374 67.672 49.2497C68.1874 48.554 68.8694 48.0381 69.72 47.7037L73.9259 47.4886C75.0399 47.6465 76.1289 47.618 77.1912 47.4012C77.3513 47.3676 77.4464 47.2701 77.4781 47.1088C77.4931 47.0298 77.4781 46.9559 77.4364 46.8887C77.3547 46.7542 77.2346 46.6887 77.0778 46.6921L74.2127 46.7341C71.5027 46.7223 69.0862 46.8231 66.9599 47.0365C65.0704 47.2281 63.5395 48.0834 62.3688 49.5992C62.1903 49.7756 62.1003 49.9706 62.1003 50.1806C61.8134 50.5318 61.6884 50.8461 61.7284 51.1233L61.5466 51.8829C61.4132 52.1853 61.3798 52.4273 61.4465 52.6105L61.4415 53.4944C61.4048 53.6708 61.4065 53.8019 61.4465 53.8876C61.5683 55.5159 62.197 56.9224 63.336 58.1071C63.3927 58.1643 63.3944 58.2399 63.341 58.3306L62.4138 58.3575C61.133 57.1711 60.4042 55.7495 60.2291 54.0926C60.2892 53.7817 60.2575 53.5229 60.1341 53.3146L60.2425 52.6105C60.2675 50.4965 61.0696 48.7455 62.6489 47.3575C63.6596 46.7509 64.5301 46.3845 65.2606 46.2585C67.4069 45.8871 70.1753 45.6418 73.5623 45.5259C73.7108 45.5191 73.8158 45.4469 73.8809 45.3057C74.1627 44.6655 74.1427 44.121 73.8225 43.6724C73.9376 42.3751 73.8458 41.1971 73.5457 40.1351L72.9003 35.3526L72.7185 32.4556C72.7085 32.2993 72.8269 32.1649 72.9836 32.1548C73.0203 32.1531 73.0554 32.1565 73.0904 32.1682C73.3906 32.2691 73.6674 32.2422 73.9209 32.0859C74.0226 32.0237 74.0576 31.8926 73.9976 31.7885L70.0368 24.6954C69.9534 24.5442 69.825 24.4215 69.6683 24.3476L53.7285 16.5538C53.605 16.4933 53.4916 16.5101 53.3916 16.6042C53.0981 16.8781 52.8913 17.2008 52.7745 17.5705L39.5997 39.2293C39.5114 39.3722 39.5497 39.4444 39.7131 39.4444L42.4382 39.436C42.5933 39.436 42.7417 39.4932 42.8568 39.5957C43.1686 39.883 43.4371 40.2493 43.6606 40.6947C45.8469 45.0352 47.9549 49.2564 49.9861 53.3566C50.0445 53.4759 50.1629 53.5515 50.2947 53.5582C51.3236 53.6103 52.4043 53.6322 53.5367 53.6221C54.7674 53.6137 55.2711 54.5732 55.9398 55.3882C56.0949 55.5781 56.0565 55.7109 55.8264 55.7915C52.2575 57.0703 48.6103 58.255 44.8863 59.3473C42.5699 60.0295 40.0817 59.9237 37.6652 59.8178C36.166 59.5708 34.665 59.3876 33.1608 59.2683C31.3413 59.1221 30.1206 58.9423 29.5002 58.7289C25.9397 57.5123 23.3781 54.1901 23.2197 50.4545C23.1529 48.8833 23.6633 46.9979 24.7506 44.7982C25.7829 42.7061 26.7435 40.945 27.6307 39.5167C27.6907 39.4192 27.8141 39.3755 27.9993 39.3839C28.0877 39.357 28.171 39.3503 28.2528 39.3655L32.1535 39.3739C32.3136 39.3739 32.4253 39.2982 32.4904 39.1453L33.4309 36.7978C33.4977 36.6297 33.5027 36.4432 33.4443 36.2718L32.1235 32.2808C32.1168 31.9666 32.0468 31.6288 31.91 31.2692C31.4581 31.202 31.0495 31.239 30.6843 31.3784C30.5325 31.4356 30.4825 31.5431 30.5342 31.6994C31.0728 33.2773 31.6098 34.8636 32.1468 36.4583C32.7138 38.1337 31.0712 38.9437 30.2073 37.4783L28.2494 31.2222C28.3311 30.0593 29.1266 29.4006 30.6376 29.246C31.0561 29.2006 31.3163 28.9301 31.418 28.436L36.4228 20.7985L37.0815 19.8558C37.1699 19.7315 37.1732 19.6021 37.0949 19.471C36.6379 18.7115 36.6629 18.004 37.1716 17.347C39.3513 14.544 41.5009 11.7697 43.6206 9.02723C44.1742 8.31305 44.6295 7.46108 44.9881 6.46964C45.7786 4.2851 46.6107 2.12744 47.4863 -0.00500488L47.4746 3.6364e-05ZM49.2407 3.13905L46.5257 10.1548C46.4656 10.3077 46.509 10.4169 46.6574 10.4841C46.8292 10.5631 47.0543 10.5783 47.3295 10.5295C47.9982 11.1462 48.3018 12.0217 48.2384 13.156C48.16 13.9525 48.2667 14.623 48.5603 15.1691C48.6503 15.3338 48.8471 15.4279 49.1456 15.4531C49.6326 15.4935 49.9078 15.2683 49.9728 14.781L50.1362 13.5543L50.223 11.284C50.4498 9.96994 51.0218 8.97514 51.939 8.29961C52.8296 8.40716 53.013 7.42243 52.4894 5.3488C52.5627 4.80939 52.5277 4.19267 52.3843 3.50034L52.1758 1.30404C52.1608 1.14272 52.0774 1.03517 51.9257 0.983079C51.6255 0.875533 51.2352 0.841925 50.7533 0.882255C50.0779 1.00492 49.5742 1.75607 49.2407 3.13905ZM54.6357 6.50324L54.8942 8.68106C54.9125 8.83734 54.9976 8.93481 55.1477 8.97346L60.0207 10.2506L64.5301 11.2303C65.3773 11.4134 65.4123 11.3126 64.6352 10.9278C63.1876 10.2203 61.7067 9.5364 60.1891 8.87767C59.5921 8.61889 59.2502 8.15509 59.1635 7.48629C59.1385 7.31825 59.0534 7.19558 58.905 7.11492L54.7674 4.92365C54.5973 4.83459 54.5023 4.88668 54.4806 5.07993C54.4322 5.56221 54.4839 6.03609 54.6357 6.50324ZM52.1608 11.4857C52.1675 11.7209 52.2058 11.9243 52.2792 12.094C52.7729 13.2383 53.6084 14.0214 54.7858 14.4466C60.6194 16.537 66.3946 18.6375 72.1064 20.7532C72.7418 20.9094 73.2105 21.1061 73.509 21.343L74.6814 23.8048L78.0835 30.7836C78.3436 31.3213 78.4787 31.2894 78.487 30.6928C78.4937 30.2072 78.3453 29.6661 78.0418 29.0679C77.8416 28.3654 77.92 27.8849 78.2786 27.621C78.447 27.495 78.5304 27.2833 78.492 27.0766L77.4931 21.7177C77.4631 21.553 77.3647 21.4589 77.1979 21.4337L75.7037 21.2321C75.3284 20.9431 75.2217 20.6271 75.3851 20.2843C75.7937 20.0155 76.3657 19.9113 77.1012 19.9684C79.004 19.7668 78.8323 21.8303 79.0407 23.1209L79.8862 27.0967C80.9619 27.5219 80.8135 28.7856 81.0936 29.6963L81.679 33.1059C81.8458 34.0738 81.9959 34.0705 82.1293 33.0975L83.2917 24.6131L81.8208 22.5764C80.2498 20.123 79.2458 18.1233 77.0662 16.9756C76.1639 16.4261 74.9865 15.9841 73.5323 15.6481C64.3917 13.5307 57.9561 12.0637 54.2271 11.2454C53.3249 11.0471 52.6361 11.1261 52.1608 11.484V11.4857ZM45.1949 13.5459L44.4677 15.5321L39.7815 27.663C39.7265 27.8042 39.7732 27.8731 39.9216 27.8731C40.2702 27.8798 40.6437 27.9554 41.044 28.1016C41.4559 28.7452 41.4292 29.2981 40.9622 29.7585C40.7871 29.935 40.3902 30.0644 39.7732 30.1433C39.1528 30.1618 38.7692 30.3114 38.6241 30.592C38.1639 31.4641 37.6502 32.8286 37.0849 34.6838L36.1126 37.1591C36.0526 37.312 36.0559 37.4615 36.1259 37.6077C36.3778 38.1387 36.4061 38.6782 36.2127 39.2277C36.171 39.347 36.2127 39.4175 36.3361 39.4377C36.3911 39.4461 36.4595 39.4377 36.5445 39.4108L37.7569 39.4058C37.9787 39.4058 38.0538 39.2999 37.9837 39.0899L37.9387 38.9571C37.887 38.8109 37.9004 38.6698 37.9804 38.5353L50.8183 16.5925L52.0991 14.3693C51.954 13.9458 51.7055 13.5509 51.3537 13.1879C51.2419 13.072 51.1685 13.0938 51.1352 13.2518C51.0802 13.524 51.0802 13.7677 51.1352 13.9845C50.89 16.1908 49.8527 16.9117 48.0249 16.1488C47.9182 15.9757 47.7831 15.838 47.6163 15.7371L47.1761 12.3881C46.8075 10.8538 46.1471 11.2387 45.1965 13.5459H45.1949ZM36.9381 27.5891L39.3813 21.0271C39.433 20.8876 39.3613 20.7313 39.2195 20.6792C39.2045 20.6742 39.1878 20.6691 39.1711 20.6658C38.9227 20.6255 38.7292 20.7145 38.5891 20.9313C37.0548 23.2872 35.4922 25.6633 33.9029 28.0613C33.6944 28.3789 33.7745 28.4982 34.143 28.4175L36.5862 27.8865C36.7447 27.8529 36.8764 27.7403 36.9364 27.5891H36.9381ZM94.6553 24.5089L95.8444 27.4782C96.0078 27.8865 95.9294 28.2411 95.6076 28.5402C95.4625 28.6746 95.2724 28.7066 95.0406 28.636C94.8621 28.5805 94.717 28.4512 94.6453 28.2797L93.9416 26.5506C93.618 25.7608 93.3812 25.786 93.2328 26.6279L92.6691 29.8627L92.1338 34.4838C92.1121 34.6737 92.1955 34.7729 92.3839 34.7813L92.6157 34.7897C92.7875 34.7981 92.9376 34.6704 92.956 34.4973C93.0794 33.237 93.2044 31.9162 93.3278 30.5349C93.3695 30.0526 93.6947 29.8089 94.3001 29.8022L96.9067 29.8106C97.3904 30.9701 97.4487 32.5951 97.0785 34.6838C97.0818 35.0737 97.1452 35.4383 97.2686 35.7778C97.3203 35.9273 97.397 35.9424 97.5004 35.8231C98.421 34.7611 99.1381 33.5781 99.6534 32.2724C99.8752 31.9212 99.9436 31.57 99.8619 31.2154C99.9369 30.6811 99.9036 30.1853 99.7618 29.7283C99.7701 29.4258 99.7285 29.1183 99.6351 28.804L98.7862 24.8097C98.7529 24.6534 98.6611 24.5543 98.5094 24.5123C98.1558 24.4114 97.7773 24.3946 97.3737 24.4618L94.6537 24.5072L94.6553 24.5089ZM83.5735 33.3277L83.2333 38.6362C83.2266 38.7219 83.2867 38.8008 83.3734 38.8244L83.4918 38.8512C83.6135 38.8815 83.6819 38.8344 83.7002 38.7101C83.9454 37.1641 84.0688 35.6181 84.0721 34.0738C84.0721 33.7226 84.3256 33.5983 84.8343 33.6991L87.696 33.6083C87.9996 33.8486 88.2514 34.1898 88.4548 34.6284C88.5382 34.8082 88.7183 34.9224 88.9185 34.9208L90.2443 34.9123C90.4811 34.9123 90.6112 34.7947 90.6345 34.5595L91.1482 29.7585L91.4567 27.7319L91.9337 25.2937C92.1755 24.9912 92.2122 24.7324 92.0421 24.5156L86.9372 24.5526L85.2395 24.5291C85.1245 24.5257 85.0244 24.6047 84.9994 24.7173C84.2873 27.4816 83.812 30.3517 83.5735 33.3294V33.3277ZM101.344 29.7669L101.386 31.323L101.123 32.7413C99.1998 36.8347 96.4664 39.7839 92.9209 41.587C91.3466 42.3868 91.44 42.7868 93.2028 42.7901H106.309L107.972 42.7666L109.053 42.7851C109.209 42.7885 109.289 42.7112 109.289 42.5515V33.4538C109.289 33.2992 109.173 33.1681 109.018 33.1513L107.818 33.032C106.252 32.9093 104.683 32.7497 103.109 32.5514C102.522 32.4774 102.29 32.0993 102.413 31.4171L105.901 31.486L107.927 31.4776C108.175 31.5784 108.469 31.6288 108.807 31.6288C108.941 31.6288 108.977 31.57 108.916 31.4507C108.374 30.3584 107.61 29.8711 106.623 29.9904L101.346 29.7669H101.344ZM35.0119 32.627C35.1353 32.2102 35.2254 31.8943 35.4155 31.4961C35.5422 31.2238 35.4589 31.1197 35.1653 31.1801L34.3665 31.3499C34.1781 31.3902 34.1047 31.5028 34.1447 31.6893C34.2198 32.0456 34.3232 32.3716 34.4532 32.664C34.6717 33.1513 34.8568 33.1395 35.0119 32.627ZM76.6125 41.9903C76.6209 42.8439 76.7443 43.6236 76.9811 44.3294H79.9429C80.2548 44.3311 80.5066 44.0773 80.5083 43.7614C80.5083 43.664 80.4849 43.5682 80.4382 43.4825L76.2957 35.9693C75.9471 35.3375 75.8154 35.3812 75.9004 36.097L76.6142 41.9903H76.6125ZM90.4361 38.416L90.5495 37.4867C90.5678 37.3389 90.4644 37.2044 90.3177 37.186C90.3177 37.186 90.316 37.186 90.3143 37.186L89.9958 37.1439C89.8657 37.1288 89.7957 37.186 89.7873 37.317C89.754 37.838 89.9641 38.2833 90.4194 38.6479C90.4527 38.6731 90.4794 38.6664 90.5011 38.6294C90.5194 38.5925 90.5094 38.5555 90.4694 38.5152C90.4427 38.4849 90.4311 38.4513 90.4377 38.4143L90.4361 38.416ZM92.1071 40.251C92.961 40.0712 93.4412 39.678 93.5463 39.0697L93.5146 37.5187C93.508 37.3237 93.4096 37.2263 93.2194 37.2263L92.2522 37.2128C92.0971 37.2128 92.017 37.2901 92.012 37.4464C91.9787 38.1018 91.9453 38.8076 91.912 39.5604C91.897 39.8713 91.962 40.1015 92.1071 40.251ZM41.039 41.1937C39.5614 45.178 38.364 48.7556 37.4467 51.9249C36.9498 53.6355 37.0415 55.2739 37.7186 56.8401C38.2906 57.6064 39.1194 58.3071 40.2035 58.9457C44.3093 58.576 48.4635 57.5526 52.6645 55.8755C53.4099 55.8083 54.0853 55.6436 54.694 55.3815C55.0309 55.2387 55.0159 55.1513 54.6523 55.121C54.1554 55.079 53.5267 55.1966 52.7629 55.4773L46.4373 56.8871L42.1463 57.1711C40.8288 57.0367 40.0884 56.5141 39.9249 55.6016C39.7248 54.4791 39.8816 52.9869 40.3919 51.1267C41.0573 48.7136 41.7261 46.3761 42.3948 44.116C43.1086 42.5902 42.9451 41.4072 41.9045 40.5653C41.656 40.367 41.4609 40.3351 41.3191 40.4695C41.1857 40.5972 41.0923 40.8409 41.0373 41.1971L41.039 41.1937ZM87.4976 42.7767L89.0052 42.7683L90.3627 42.7817C90.5261 42.7817 90.6245 42.7011 90.6579 42.5398C90.6695 42.4725 90.6695 42.4053 90.6579 42.3381C90.6245 42.1818 90.5311 42.086 90.376 42.0491C89.9307 41.9482 89.4671 41.9348 88.9868 42.0071L87.3792 41.9835L83.6235 41.9651C83.3667 41.9651 83.2383 42.0928 83.2383 42.3499V42.5095C83.24 42.6675 83.3684 42.7935 83.5251 42.7935L87.4993 42.775L87.4976 42.7767ZM75.6653 51.4342C75.6653 51.3653 75.6086 51.3115 75.5402 51.3132L70.0185 51.4292C69.9501 51.4292 69.8967 51.4863 69.8984 51.5552L69.9084 52.0761C69.9084 52.145 69.9651 52.1988 70.0335 52.1971L75.5552 52.0812C75.6236 52.0812 75.677 52.024 75.6753 51.9551L75.6653 51.4342ZM75.6536 55.1479C75.6536 55.079 75.6003 55.0236 75.5336 55.0219L70.0035 54.9143C69.9351 54.9143 69.8801 54.9681 69.8784 55.0353L69.8684 55.5663C69.8684 55.6352 69.9218 55.6907 69.9885 55.6924L75.5185 55.7999C75.5869 55.7999 75.6419 55.7461 75.6436 55.6789L75.6536 55.1479Z" fill="#FFCC00"/>
<path d="M50.7529 0.883883L51.1064 2.54077C51.1398 2.69033 51.2132 2.813 51.3282 2.91214C51.6284 3.17093 51.9786 3.36754 52.3822 3.50197C52.524 4.1943 52.559 4.81101 52.4873 5.35043C52.2271 5.11853 51.9503 4.96057 51.6568 4.87487C51.56 4.8463 51.46 4.90008 51.43 4.99754C51.4216 5.02443 51.42 5.05299 51.425 5.08156L51.9386 8.30292C51.0214 8.97676 50.4494 9.97157 50.2226 11.2873C49.8507 11.0336 49.5205 11.0924 49.2319 11.4604C49.1352 11.5831 49.1085 11.7175 49.1552 11.8671C49.3487 12.4922 49.6755 13.0551 50.1358 13.5559L49.9724 14.7826C49.909 15.2699 49.6339 15.4951 49.1452 15.4548C48.845 15.4296 48.6499 15.3355 48.5599 15.1708C49.2286 14.5675 49.1219 13.8953 48.238 13.1576C48.3014 12.0234 47.9995 11.1479 47.3291 10.5311C47.6376 9.71615 48.1046 9.02045 48.7283 8.44407C48.85 8.33148 48.9918 8.26259 49.1552 8.23738L49.4821 8.19537C49.6939 8.16512 49.7873 8.04245 49.7639 7.82904L49.2419 3.139C49.5755 1.7577 50.0791 1.00487 50.7545 0.882202L50.7529 0.883883Z" fill="black"/>
<path d="M60.0222 10.2505C59.0199 9.65904 57.9792 9.15827 56.9019 8.74993C56.4667 8.58525 56.2098 8.19876 56.1348 7.59213C56.1164 7.44257 56.0514 7.31822 55.9397 7.21739C55.5528 6.87795 55.1175 6.64101 54.6355 6.50322C54.4838 6.03606 54.4321 5.56219 54.4804 5.07991C54.5021 4.88834 54.5972 4.83625 54.7673 4.92363L58.9048 7.11489C59.0532 7.19387 59.14 7.31822 59.1633 7.48626C59.2517 8.15507 59.5936 8.61886 60.1889 8.87765C61.7065 9.53637 63.1875 10.2203 64.635 10.9278C65.4138 11.3126 65.3788 11.4134 64.53 11.2302L60.0205 10.2505H60.0222Z" fill="black"/>
<path d="M77.0655 16.9772L80.6394 22.5326C80.7278 22.6671 80.8495 22.7225 81.0079 22.7024L81.8201 22.578L83.291 24.6147C82.4522 24.3088 81.9619 24.4903 81.8201 25.1541C81.4332 26.9538 81.1897 28.4696 81.093 29.6979C80.8111 28.7872 80.9612 27.5235 79.8856 27.0983C80.0307 26.6312 80.1391 26.1758 80.2124 25.7305C80.2875 25.2549 80.2124 24.813 79.9906 24.408C79.7338 23.9442 79.417 23.5157 79.0417 23.1225C78.8333 21.8319 79.005 19.7684 77.1022 19.97C75.7797 17.8409 73.7568 16.4462 71.0351 15.7875C64.8163 14.2835 58.5241 12.8501 52.1602 11.4856C52.6354 11.1293 53.3242 11.0487 54.2264 11.247C57.9571 12.0653 64.391 13.5323 73.5317 15.6497C74.9842 15.9858 76.1633 16.4277 77.0655 16.9772Z" fill="black"/>
<path d="M47.1744 12.388L47.6147 15.7371C46.6041 16.8042 45.5551 16.7369 44.4678 15.5304L45.1949 13.5442C45.1765 14.1844 45.2483 14.67 45.4084 14.9994C45.6068 15.4111 46.0988 15.5825 46.5074 15.3809C46.7659 15.2531 46.941 14.9994 46.966 14.7104L47.1744 12.3864V12.388Z" fill="black"/>
<path d="M51.1349 13.9844C51.3284 14.2919 51.6502 14.4213 52.0972 14.3692L50.8164 16.5924C50.5496 16.4546 50.2861 16.6008 50.0259 17.031C45.5298 24.4383 41.027 31.8422 36.5193 39.2427C36.5009 39.2696 36.5009 39.3049 36.5193 39.3486C36.5276 39.3637 36.5359 39.3839 36.5426 39.4074C36.4575 39.4343 36.3875 39.4444 36.3341 39.4343C36.2107 39.4125 36.169 39.3436 36.2107 39.2243C36.4042 38.6748 36.3758 38.1353 36.124 37.6043C36.054 37.4581 36.0506 37.3086 36.1107 37.1557L37.0829 34.6804L39.7713 30.1416C40.3883 30.0626 40.7852 29.9349 40.9603 29.7568C41.4273 29.2964 41.454 28.7435 41.042 28.0999L48.023 16.1471C49.8525 16.91 50.8881 16.1891 51.1333 13.9827L51.1349 13.9844Z" fill="black"/>
<path d="M72.8887 35.3543L73.1522 39.3772C73.1605 39.5301 73.2089 39.6679 73.2973 39.7939L73.5341 40.1367C73.4257 41.3718 73.5174 42.5515 73.8109 43.674C74.1311 44.1227 74.1512 44.6671 73.8693 45.3074C73.8059 45.4485 73.6992 45.5208 73.5508 45.5275C70.162 45.6435 67.3953 45.8871 65.249 46.2602C64.5186 46.3845 63.6497 46.7508 62.6374 47.3592C59.8907 48.1674 58.4698 50.0747 58.3731 53.0793C58.3131 54.9647 58.9134 56.5998 60.1759 57.9844C60.3577 58.1794 60.316 58.2869 60.0491 58.3054C59.904 58.3138 59.7606 58.3104 59.6172 58.2919C59.317 58.2533 59.0402 58.1021 58.8451 57.8668C57.204 55.9024 56.7504 53.5347 57.4826 50.7654C58.3864 47.3508 61.0064 46.1711 64.2217 45.919C66.3597 45.7544 68.416 45.6149 70.3938 45.5023C70.7791 45.4788 71.0743 45.1461 71.0509 44.7579C71.0509 44.7461 71.0492 44.7327 71.0476 44.7209L69.6851 32.6622C69.6601 32.4371 69.8202 32.2321 70.0453 32.2069C70.0503 32.2069 70.057 32.2069 70.062 32.2069L70.7074 32.1648C71.0009 32.1464 71.0759 32.0086 70.9292 31.7481L67.1052 24.8651C66.9451 24.5794 66.7016 24.3492 66.4064 24.2064L52.7646 17.5755C52.8831 17.2058 53.0882 16.8848 53.3817 16.6092C53.4818 16.5151 53.5935 16.4983 53.7186 16.5588L69.6584 24.3526C69.8152 24.4265 69.9436 24.5492 70.0269 24.7004L73.9877 31.7935C74.0461 31.8977 74.0127 32.0287 73.911 32.0909C73.6575 32.2472 73.379 32.2741 73.0805 32.1732C72.9304 32.1245 72.7686 32.2069 72.7203 32.3564C72.7086 32.39 72.7053 32.427 72.7069 32.4623L72.8887 35.3593V35.3543Z" fill="black"/>
<path d="M75.3844 20.286C75.221 20.6271 75.3277 20.9431 75.703 21.2338L76.7936 26.8212C76.8203 26.9707 76.897 27.09 77.0204 27.1774C77.4741 27.5135 77.8159 28.1436 78.0427 29.0679C78.3463 29.6661 78.4947 30.2072 78.488 30.6928C78.4797 31.2911 78.3446 31.3213 78.0844 30.7836L74.6823 23.8048C74.8374 21.9933 74.4455 21.1716 73.51 21.343C73.2098 21.1044 72.7428 20.9078 72.1074 20.7532C72.6828 19.8105 73.7751 19.6542 75.3861 20.286H75.3844Z" fill="black"/>
<path d="M36.9373 27.5891C36.8772 27.7404 36.7455 27.8529 36.5871 27.8865L34.1439 28.4176C33.7753 28.4965 33.6936 28.3772 33.9037 28.0613C35.4931 25.6634 37.0557 23.2873 38.59 20.9313C38.73 20.7145 38.9235 20.6255 39.172 20.6658C39.3204 20.6927 39.4188 20.8338 39.3938 20.98C39.3905 20.9968 39.3871 21.012 39.3805 21.0271L36.9373 27.5891Z" fill="black"/>
<path d="M97.3753 24.4635L98.074 28.436C98.0991 28.5822 98.1824 28.6628 98.3275 28.678L99.635 28.8057C99.7284 29.1199 99.7718 29.4274 99.7618 29.7299H98.6761C98.5126 29.7265 98.4326 29.8072 98.4359 29.9719C98.4726 31.6187 98.019 33.1899 97.0784 34.6854C97.447 32.595 97.3903 30.9717 96.9067 29.8122L95.8443 25.0113C95.811 24.8584 95.7243 24.7525 95.5858 24.6903C95.3374 24.5811 95.0272 24.5189 94.6553 24.5072L97.3753 24.4618V24.4635Z" fill="black"/>
<path d="M92.043 24.5139L91.8429 24.5727C91.6761 24.6215 91.6161 24.7307 91.6611 24.9021C91.7028 25.0516 91.7945 25.181 91.9329 25.2903L91.456 27.7285L90.6205 26.0582C90.4804 25.7809 90.3803 25.7944 90.3169 26.1002C89.7666 28.7603 89.3714 31.5212 89.1312 34.383C89.1095 34.6485 89.2313 34.7712 89.4948 34.7493L89.6715 34.7409C89.7966 34.7292 89.895 34.6351 89.9117 34.5124C90.0785 33.0908 90.2052 31.7246 90.2936 30.4122C90.3153 30.0895 90.5988 29.8711 91.1475 29.7585L90.6338 34.5594C90.6088 34.7947 90.4787 34.9123 90.2436 34.9123L88.9177 34.9207C88.7176 34.9207 88.5375 34.8065 88.4541 34.6283C88.2507 34.1897 87.9988 33.8486 87.6953 33.6083L89.0662 24.85C89.0862 24.7357 89.0111 24.6265 88.8961 24.6063C88.8861 24.6047 88.8761 24.603 88.866 24.603L86.9365 24.5526L92.0413 24.5156L92.043 24.5139Z" fill="black"/>
<path d="M106.622 29.992L107.926 31.4792L105.9 31.4876C105.658 31.0658 105.38 30.7196 105.064 30.4491C104.789 30.2138 104.394 30.0828 103.879 30.0559C103.036 30.0105 102.193 29.9147 101.344 29.7668L106.62 29.9903L106.622 29.992Z" fill="black"/>
<path d="M94.3011 29.8038C93.6958 29.8106 93.3722 30.0542 93.3289 30.5365C93.2054 31.9178 93.0804 33.2403 92.957 34.4989C92.9386 34.672 92.7885 34.7997 92.6167 34.7913L92.3849 34.7829C92.1965 34.7745 92.1148 34.6754 92.1348 34.4855L92.6701 29.8643L94.3011 29.8055V29.8038Z" fill="black"/>
<path d="M31.8962 31.2726C31.6778 31.2507 31.4943 31.2642 31.3459 31.3146C31.1908 31.37 31.1291 31.4759 31.1591 31.6355C31.4593 33.2807 31.7745 33.4958 32.108 32.2859L33.4288 36.2768C33.4872 36.4482 33.4822 36.6348 33.4155 36.8028L32.4749 39.1503C32.4115 39.3033 32.2998 39.3789 32.138 39.3789L28.2373 39.3705C28.5342 39.4108 28.8093 39.4041 29.0645 39.352C29.2129 39.3217 29.3213 39.2377 29.3913 39.0999L30.1902 37.4851C31.0524 38.9487 32.6967 38.1387 32.1297 36.465C31.5944 34.8703 31.0557 33.2823 30.517 31.7061C30.4653 31.5498 30.517 31.444 30.6671 31.3851C31.034 31.244 31.4426 31.2087 31.8929 31.2759L31.8962 31.2726Z" fill="black"/>
<path d="M35.417 31.4977C35.2269 31.896 35.1351 32.2119 35.0134 32.6286C34.8583 33.1412 34.6732 33.1529 34.4547 32.6656C34.3246 32.3732 34.2212 32.0472 34.1462 31.691C34.1062 31.5044 34.1812 31.3919 34.368 31.3515L35.1668 31.1818C35.4603 31.1213 35.5437 31.2255 35.417 31.4977Z" fill="black"/>
<path d="M99.8652 31.2188C99.9469 31.5733 99.8769 31.9245 99.6567 32.2757C99.4333 32.2606 99.3282 32.1363 99.3432 31.9044C99.3649 31.6237 99.5383 31.3952 99.8652 31.2188Z" fill="black"/>
<path d="M101.386 31.323C101.686 31.4238 102.028 31.4558 102.411 31.4188C102.288 32.1027 102.518 32.4808 103.107 32.5531C104.681 32.7514 106.25 32.911 107.816 33.0337L107.971 42.7666L106.309 42.7902L106.314 33.4689C106.314 33.2891 106.179 33.1378 106 33.121L101.122 32.7413L101.386 31.323Z" fill="black"/>
<path d="M83.5734 33.3276C83.7669 33.4587 84.1888 33.5831 84.8359 33.699C84.3272 33.5982 84.0737 33.7242 84.0737 34.0737C84.0704 35.618 83.947 37.1623 83.7018 38.71C83.6835 38.8344 83.6135 38.8831 83.4934 38.8512L83.375 38.8243C83.2866 38.8024 83.2282 38.7235 83.2349 38.6361L83.5751 33.3276H83.5734Z" fill="black"/>
<path d="M76.9794 44.3294C77.4797 43.9882 77.6098 43.6337 77.3697 43.2674C77.0995 42.8557 76.8477 42.4305 76.6109 41.9902L75.8971 36.097C75.812 35.3795 75.9438 35.3375 76.2923 35.9693L80.4349 43.4824C80.585 43.7597 80.4866 44.1076 80.2148 44.2588C80.1314 44.3058 80.0363 44.3294 79.9396 44.3294H76.9778H76.9794Z" fill="black"/>
<path d="M93.5476 39.0713L92.1084 40.2527C91.9633 40.1031 91.8982 39.8729 91.9132 39.562C91.9466 38.8092 91.9799 38.1034 92.0133 37.4481C92.02 37.2918 92.1 37.2145 92.2534 37.2145L93.2207 37.2279C93.4108 37.2279 93.5092 37.3254 93.5159 37.5203L93.5476 39.0713Z" fill="black"/>
<path d="M17.5171 39.2226L14.2434 45.2083C14.1884 45.3108 14.2251 45.4385 14.3268 45.4939C14.3451 45.504 14.3635 45.5107 14.3835 45.5158C14.8771 45.625 15.3524 45.8233 15.8094 46.1106L17.4037 47.5575C21.3328 53.0356 17.5671 59.5422 11.6451 61.0798C8.70167 61.8427 5.72483 61.3806 2.71131 59.6934C1.51557 58.87 0.651705 57.971 0.118043 56.9981C-0.0787447 56.6385 -0.0337169 56.3125 0.254794 56.0184L2.08425 54.1699C2.39278 53.8624 2.61458 53.9162 2.748 54.3346C2.88808 54.7648 3.11656 55.1194 3.43842 55.3966C3.832 55.9949 4.33231 56.4889 4.93768 56.8788C6.56035 58.0937 8.30976 58.3441 10.1826 57.6333C13.7381 56.2872 14.0466 51.4006 11.4767 48.9623C10.8713 48.2885 10.1776 47.8297 9.39709 47.5894C8.82174 47.3121 8.25806 47.1844 7.70772 47.2096C7.59932 47.213 7.50926 47.129 7.50593 47.0198C7.50593 46.9845 7.5126 46.9475 7.53094 46.9173L9.97912 42.5381C10.2543 42.239 10.4144 41.9197 10.4561 41.5819C10.4778 41.424 10.4077 41.3433 10.2476 41.3433L5.7782 41.3568L4.52409 41.3937C4.21557 41.4055 4.09716 41.261 4.17054 40.9585L4.8026 38.369C4.8693 38.0951 5.04274 37.9573 5.32458 37.9573H17.8957C18.0708 37.9573 18.1191 38.0363 18.0408 38.1959L17.5188 39.226L17.5171 39.2226Z" fill="white"/>
<path d="M17.5173 39.2226L19.315 39.2041C19.4151 39.2041 19.4968 39.2864 19.4951 39.3856C19.4951 39.4142 19.4868 39.4444 19.4735 39.4696L15.8079 46.1089C15.3509 45.8216 14.8756 45.6233 14.382 45.5141C14.2686 45.4905 14.1969 45.3779 14.2202 45.2654C14.2236 45.2452 14.2319 45.2267 14.2419 45.2082L17.5156 39.2226H17.5173Z" fill="black"/>
<path d="M27.9852 39.3872C27.8001 39.3788 27.6784 39.4225 27.6167 39.52C26.7295 40.9484 25.7706 42.7077 24.7366 44.8015C23.6492 47.0012 23.1389 48.8866 23.2056 50.4578C23.3641 54.1917 25.9256 57.5139 29.4862 58.7322C30.1066 58.9456 31.3273 59.1254 33.1468 59.2716C34.651 59.3909 36.1536 59.5741 37.6512 59.8211C35.0513 59.732 32.4647 59.5623 29.8948 59.3086C27.6717 59.0918 26.1124 58.7288 25.2119 58.2197C22.8904 56.9056 21.3695 55.1361 20.6524 52.9112C20.4556 52.3046 20.3672 52.3197 20.3889 52.9566C20.579 58.6952 15.7877 62.6492 10.2927 62.5383C7.24914 62.4812 4.72258 61.5318 2.70801 59.6917C5.71986 61.3788 8.69837 61.841 11.6418 61.0781C17.5638 59.5405 21.3295 53.0339 17.4004 47.5557C18.7996 48.5203 19.6885 49.8125 20.067 51.4358C20.1271 51.7013 20.2071 51.7081 20.3039 51.4543C20.3639 51.3014 20.3872 51.1485 20.3722 50.9922C20.2321 49.379 20.3455 48.1036 20.7091 47.1659C21.4662 45.2099 22.7187 42.7145 24.4697 39.6796C24.5481 39.5418 24.6682 39.4729 24.8283 39.4696L27.9852 39.3872Z" fill="black"/>
<path d="M41.0388 41.1937C41.3023 42.2103 41.7542 43.1833 42.3963 44.1126C41.7275 46.3727 41.0588 48.7102 40.3934 51.1233C39.8814 52.9835 39.7263 54.4757 39.9264 55.5982C40.0899 56.5107 40.8303 57.0333 42.1478 57.1677C41.3823 57.0938 40.6385 57.0787 39.9181 57.1224C39.0776 57.1728 38.5189 56.9896 37.7201 56.8384C37.0413 55.2739 36.9513 53.6355 37.4482 51.9231C38.3655 48.7539 39.5629 45.1763 41.0404 41.192L41.0388 41.1937Z" fill="black"/>
<path d="M9.97957 42.5347L6.10052 42.5481C5.87038 42.5481 5.68359 42.3582 5.68359 42.1263C5.68359 42.1079 5.68359 42.0911 5.68693 42.0726L5.77698 41.3533L10.2464 41.3399C10.4065 41.3399 10.4765 41.4189 10.4549 41.5785C10.4132 41.918 10.2531 42.2356 9.97791 42.5347H9.97957Z" fill="black"/>
<path d="M87.3789 41.9852L88.9866 42.0087L89.0049 42.7682L87.4973 42.7766C87.554 42.454 87.5157 42.1902 87.3789 41.9852Z" fill="black"/>
<path d="M73.9141 47.4902C74.1809 47.3676 74.3327 47.2432 74.3727 47.1155C74.4361 46.9206 74.3793 46.7929 74.2009 46.7357L77.066 46.6937C77.2228 46.6904 77.3428 46.7559 77.4246 46.8903C77.4663 46.9576 77.4813 47.0315 77.4663 47.1105C77.4362 47.2718 77.3412 47.3693 77.1794 47.4029C76.1171 47.6196 75.0281 47.6482 73.9141 47.4902Z" fill="black"/>
<path d="M80.4817 58.7389C78.0285 58.2953 77.2481 56.2536 77.1797 54.0068L78.1886 53.9648L81.0454 53.9917C81.2672 53.9917 81.4006 53.8842 81.449 53.6708C81.4757 53.5481 81.479 53.4237 81.4573 53.296C81.4356 53.1465 81.3506 53.0675 81.1988 53.0574L78.1103 52.8608C77.8401 52.8457 77.6917 52.7028 77.66 52.4306C77.6533 52.3752 77.655 52.3214 77.665 52.2659C77.7017 52.0861 77.8101 51.9903 77.9919 51.9769L81.3623 51.7063C81.5774 51.6912 81.7141 51.5786 81.7759 51.3669L81.8259 51.1837C81.8609 51.0577 81.7859 50.925 81.6574 50.8897C81.6391 50.8846 81.6191 50.8813 81.5991 50.8813L78.9474 50.8308C78.7723 50.8275 78.6906 50.7384 78.7023 50.5603C78.709 50.4326 78.7757 50.32 78.9074 50.2209C79.0642 50.2612 79.1309 50.2645 79.1075 50.2343L82.046 50.157C82.2912 50.1503 82.4529 50.031 82.5313 49.7957L82.5897 49.626C82.628 49.5134 82.568 49.3907 82.4563 49.3538C82.4329 49.3454 82.4096 49.342 82.3862 49.342L79.9797 49.3924C79.7763 49.3958 79.6996 49.2983 79.7479 49.1C79.8046 48.8748 80.0831 48.7539 80.5784 48.7387C80.6185 48.732 80.6585 48.7286 80.7019 48.7253C85.5665 48.5909 90.4162 48.1708 95.2475 47.4667C101.225 47.1793 107.043 47.675 112.705 48.9538C114.508 49.3605 116.034 50.6645 116.129 52.6927C116.237 55.0151 115.39 56.6216 113.585 57.5155C112.817 57.8936 111.471 58.1104 109.548 58.1659C105.167 58.2902 100.716 58.381 96.1964 58.4364C93.7049 58.4667 91.0849 58.5288 88.3399 58.6246C85.7216 58.7137 83.1017 58.749 80.4834 58.7338L80.4817 58.7389ZM112.476 50.7082C113.345 53.7228 112.585 55.5814 110.197 56.2872L85.2096 57.3996C83.9138 56.6484 83.2651 55.5579 83.2651 54.1278C83.2651 53.99 83.165 53.8724 83.0283 53.8489L82.9149 53.8304C82.8148 53.8153 82.7581 53.8573 82.7431 53.9581C82.5347 55.4251 82.9699 56.6232 84.0506 57.5508C84.741 57.9104 85.4731 58.0818 86.2486 58.0634C93.7699 57.8617 101.258 57.5559 108.716 57.1442L111.336 57.0988C112.735 56.9039 113.827 56.2468 114.614 55.126C116.235 52.8205 114.678 50.4864 112.29 49.8226C112.111 49.7705 112.041 49.836 112.081 50.0192C112.138 50.2847 112.27 50.5149 112.476 50.7099V50.7082ZM107.108 50.1217C107.105 49.9873 106.993 49.8831 106.86 49.8865L88.9653 50.4208C88.8319 50.4242 88.7285 50.5368 88.7318 50.6712L88.7501 51.293C88.7535 51.4274 88.8652 51.5316 88.9986 51.5282L106.893 50.9938C107.026 50.9905 107.13 50.8779 107.126 50.7435L107.108 50.1217ZM85.9851 55.3478C86.6405 55.3461 87.1675 54.2723 87.1625 52.9499C87.1575 51.6274 86.6238 50.5586 85.9684 50.5603C85.313 50.562 84.786 51.6358 84.791 52.9583C84.796 54.2807 85.3297 55.3495 85.9851 55.3478ZM107.096 53.4439C107.091 53.2943 106.968 53.1784 106.821 53.1818L88.9903 53.7144C88.8419 53.7195 88.7268 53.8438 88.7301 53.9917L88.7468 54.5496C88.7518 54.6992 88.8752 54.8151 89.022 54.8118L106.853 54.2791C107.001 54.274 107.116 54.1497 107.113 54.0018L107.096 53.4439Z" fill="#FFCC00"/>
<path d="M95.2458 47.4717C90.4145 48.1758 85.5649 48.5959 80.7002 48.7303L95.2458 47.4717Z" fill="black"/>
<path d="M9.39728 47.5877C10.1778 47.828 10.8715 48.2868 11.4769 48.9606L9.27387 48.4111C9.12211 48.3708 9.06041 48.2733 9.08709 48.1187C9.11211 47.9692 9.21383 47.7927 9.39561 47.5877H9.39728Z" fill="black"/>
<path d="M69.7083 47.7053C68.8578 48.0414 68.174 48.5573 67.6603 49.2513C67.5703 49.3757 67.4486 49.4462 67.2968 49.4614C66.3012 49.5706 65.3156 49.6344 64.34 49.6496C63.9714 49.6529 63.778 49.8243 63.7629 50.1671L62.0869 50.1806C62.0869 49.9705 62.177 49.7756 62.3554 49.5992L64.2633 49.421C64.4017 49.4093 64.5284 49.337 64.6135 49.2244C65.8993 47.4667 67.4285 47.5675 69.7083 47.7053Z" fill="black"/>
<path d="M78.3964 48.6581L80.576 48.7455C80.0791 48.7606 79.8022 48.8816 79.7455 49.1068C79.6972 49.305 79.7739 49.4025 79.9773 49.3991L82.3838 49.3487C82.5022 49.3487 82.599 49.4428 82.599 49.5621C82.599 49.5857 82.5956 49.6109 82.5873 49.6327L82.5289 49.8024C82.4505 50.0377 82.2888 50.1587 82.0436 50.1637L79.1051 50.241C80.1341 49.4109 79.6338 49.137 77.6025 49.4176C77.841 49.0126 78.1062 48.7589 78.398 48.6581H78.3964Z" fill="black"/>
<path d="M106.863 49.8857L88.9666 50.4209C88.834 50.4249 88.7298 50.5364 88.7337 50.67L88.752 51.2931C88.756 51.4267 88.8666 51.5318 88.9992 51.5278L106.896 50.9926C107.028 50.9887 107.133 50.8772 107.129 50.7436L107.11 50.1204C107.106 49.9868 106.996 49.8818 106.863 49.8857Z" fill="black"/>
<path d="M63.332 51.0695L63.7323 51.0375C63.9024 51.0258 64.0091 50.935 64.0541 50.767C64.0958 50.6174 64.0958 50.4326 64.0541 50.2125L66.9009 50.157C67.0126 50.1536 67.0777 50.2074 67.096 50.3166C67.1327 50.5452 67.0627 50.7552 66.8876 50.9434C66.7925 51.0426 66.6607 51.098 66.524 51.0947L63.332 51.0678V51.0695Z" fill="black"/>
<path d="M77.0521 50.2646L78.9049 50.2277C78.7749 50.3251 78.7065 50.4377 78.6998 50.5671C78.6881 50.7436 78.7699 50.8343 78.945 50.8377L81.5966 50.8881C81.73 50.8914 81.8351 51.0007 81.8317 51.1317C81.8317 51.1519 81.8284 51.1704 81.8234 51.1889L81.7734 51.372C81.7133 51.5821 81.5749 51.6947 81.3598 51.7115L77.9894 51.982C77.8076 51.9938 77.6992 52.0896 77.6625 52.271C77.6542 52.3265 77.6525 52.3803 77.6575 52.4357C77.6875 52.708 77.8376 52.8508 78.1078 52.8659L81.1963 53.0625C81.3481 53.0709 81.4348 53.1516 81.4548 53.3011C81.4765 53.4289 81.4732 53.5549 81.4465 53.6759C81.3981 53.8893 81.2631 53.9968 81.0429 53.9968L78.1862 53.9699C78.7799 53.2524 78.1445 52.9214 76.2783 52.9768L76.4868 51.8274C77.0138 51.8274 77.5208 51.8089 78.0077 51.772C78.4096 51.7417 78.6514 51.5636 78.7298 51.2359C78.7699 51.0796 78.7098 50.9838 78.5531 50.9469C77.9227 50.804 77.314 50.8007 76.7269 50.9385C76.772 50.6696 76.8804 50.4461 77.0488 50.2663L77.0521 50.2646Z" fill="black"/>
<path d="M85.9845 55.3475C86.6394 55.3452 87.1665 54.272 87.162 52.9505C87.1574 51.6289 86.6228 50.5594 85.9679 50.5617C85.3131 50.5641 84.7859 51.6373 84.7905 52.9588C84.7951 54.2804 85.3297 55.3498 85.9845 55.3475Z" fill="black"/>
<path d="M112.475 50.7083C113.768 53.0138 113.388 55.1445 111.335 57.0972L108.715 57.1426C109.357 56.9191 109.851 56.6351 110.196 56.2872C112.584 55.5831 113.344 53.7229 112.475 50.7083Z" fill="black"/>
<path d="M61.7167 51.125L62.9874 51.1435C62.8907 51.4056 62.9607 51.6258 63.1959 51.8022L61.5332 51.8846L61.715 51.125H61.7167Z" fill="black"/>
<path d="M75.5407 51.3141L70.0218 51.4306C69.9537 51.4321 69.8996 51.4889 69.901 51.5576L69.9118 52.0767C69.9132 52.1454 69.9696 52.1998 70.0378 52.1984L75.5566 52.0819C75.6248 52.0805 75.6789 52.0237 75.6774 51.955L75.6666 51.4359C75.6652 51.3672 75.6088 51.3127 75.5407 51.3141Z" fill="black"/>
<path d="M63.5322 51.8476L66.5574 51.824C66.7209 51.8207 66.8543 51.9501 66.8576 52.1131C66.8576 52.1181 66.8576 52.1215 66.8576 52.1265L66.8526 52.2862C66.8476 52.5029 66.6725 52.676 66.4574 52.6743L63.6373 52.6609C63.8524 52.1887 63.8174 51.9165 63.5322 51.8459V51.8476Z" fill="black"/>
<path d="M60.2307 52.6122L60.1223 53.3163C59.9705 53.323 59.8355 53.2591 59.7187 53.1247C59.6287 53.0222 59.637 52.8676 59.7371 52.7752C59.7804 52.7365 59.8371 52.713 59.8955 52.713C60.0022 52.713 60.114 52.6794 60.2324 52.6122H60.2307Z" fill="black"/>
<path d="M61.4347 52.6122L62.6238 52.7214L62.8923 53.3163C62.3236 53.2944 61.8349 53.3549 61.4297 53.4944L61.4347 52.6105V52.6122Z" fill="black"/>
<path d="M106.82 53.1826L88.9901 53.7158C88.8418 53.7202 88.7252 53.8449 88.7296 53.9942L88.7461 54.5519C88.7505 54.7012 88.8742 54.8187 89.0224 54.8143L106.852 54.2811C107 54.2766 107.117 54.152 107.113 54.0026L107.096 53.445C107.092 53.2956 106.968 53.1781 106.82 53.1826Z" fill="black"/>
<path d="M63.5456 54.1178C63.7574 53.9279 63.8158 53.6825 63.7224 53.3817L66.4607 53.3683C66.7092 53.3683 66.8376 53.4926 66.846 53.7397L66.851 53.9094C66.856 54.0388 66.7559 54.1463 66.6292 54.1514C66.6258 54.1514 66.6225 54.1514 66.6192 54.1514L63.5439 54.1194L63.5456 54.1178Z" fill="black"/>
<path d="M61.4346 53.8876C61.5747 54.1464 61.8832 54.2186 62.3618 54.1027C62.4652 55.8469 63.3758 57.2568 65.0952 58.3306H63.3291C63.3841 58.2398 63.3824 58.1642 63.3241 58.1071C62.185 56.9241 61.5563 55.5176 61.4346 53.8876Z" fill="black"/>
<path d="M85.2094 57.3979C84.8492 57.3711 84.4623 57.4215 84.052 57.5492C82.9714 56.6216 82.5344 55.4251 82.7446 53.9565C82.7596 53.8556 82.8179 53.8136 82.9163 53.8287L83.0297 53.8472C83.1665 53.8708 83.2649 53.9884 83.2665 54.1262C83.2665 55.5562 83.9153 56.6468 85.2111 57.3979H85.2094Z" fill="black"/>
<path d="M76.2722 54.0119L77.1811 54.0069C77.2495 56.2536 78.03 58.2953 80.4832 58.7389C78.9239 58.8179 77.4646 58.6835 76.1055 58.3356L77.3179 58.3726C77.4263 58.3777 77.5163 58.292 77.5213 58.1844C77.5213 58.1441 77.513 58.1054 77.4913 58.0718C76.6858 56.8451 76.2806 55.4924 76.2739 54.0136L76.2722 54.0119Z" fill="black"/>
<path d="M60.2173 54.0943C60.3924 55.7512 61.1212 57.1728 62.402 58.3592C60.7193 57.6702 59.6986 56.378 59.3417 54.4825C59.275 54.1313 59.4101 54.0153 59.7453 54.1346C59.8787 54.18 60.0355 54.1665 60.2173 54.0926V54.0943Z" fill="black"/>
<path d="M69.8777 55.0374L69.8676 55.5666C69.8663 55.6353 69.9205 55.692 69.9886 55.6933L75.5177 55.8003C75.5858 55.8016 75.6421 55.747 75.6434 55.6783L75.6535 55.1491C75.6548 55.0804 75.6006 55.0237 75.5325 55.0224L70.0034 54.9154C69.9353 54.9141 69.879 54.9687 69.8777 55.0374Z" fill="black"/>
<path d="M4.93773 56.877C4.33236 56.4871 3.83205 55.9931 3.43848 55.3948C3.76201 55.1965 4.00382 55.2604 4.16059 55.5864C4.36405 56.0099 4.62254 56.4401 4.93773 56.877Z" fill="black"/>
<path d="M52.7642 55.4756C52.5858 55.8419 52.5524 55.9747 52.6641 55.8738C48.4615 57.5526 44.3073 58.5759 40.2031 58.944L46.4386 56.8855L52.7642 55.4756Z" fill="black"/>
<path d="M79.5778 63.9466C79.5661 65.7681 79.5644 67.5947 79.5728 69.4281C79.5794 70.5943 79.9213 71.4244 80.5984 71.9218C82.588 72.846 84.8043 72.2428 84.8577 69.6701C84.9027 67.6115 84.9094 65.5177 84.876 63.392C84.8727 63.2189 84.9577 63.1316 85.1295 63.1316L103.514 63.1232C103.671 63.1232 103.781 63.1971 103.841 63.3466C103.911 63.5231 103.946 63.718 103.946 63.9331L103.851 65.7732C103.839 66.0219 103.633 66.2168 103.384 66.2168H95.4509C95.2241 66.2168 95.109 66.3327 95.1057 66.5646L95.0873 67.704C95.084 67.8955 95.1774 68.0098 95.3692 68.0468C95.5359 68.077 95.7044 68.0753 95.8728 68.0417L102.158 68.0283C102.315 68.0283 102.42 68.1022 102.472 68.2518C102.55 68.4652 102.589 68.7072 102.585 68.9744L102.58 69.9675C102.58 70.2347 102.363 70.4531 102.095 70.4531L95.3458 70.4346C95.189 70.4346 95.1073 70.5136 95.1057 70.6733L95.079 71.9453C95.0756 72.1134 95.1524 72.2276 95.3058 72.2881C95.4909 72.3621 95.6827 72.3654 95.8828 72.3016L103.621 72.2965C103.854 72.2965 103.931 72.1873 103.853 71.9672C103.816 71.8664 103.804 71.7655 103.816 71.6647C103.841 71.5067 103.929 71.4278 104.085 71.4311L108.671 71.4866C108.819 71.4899 108.958 71.5286 109.089 71.6059C110.278 72.3251 111.519 72.7133 112.663 71.7386C112.782 71.7269 112.862 71.6328 112.903 71.4597C112.952 71.2496 112.823 71.0413 112.615 70.9925C112.596 70.9875 112.576 70.9858 112.558 70.9841C109.946 70.7556 107.463 70.7186 104.96 69.7675C103.984 69.0349 103.579 68.0955 103.743 66.9495C103.913 66.242 104.223 65.59 104.673 64.9951C105.717 63.9146 107.031 63.2744 108.616 63.0727C111.954 62.6426 116.059 62.693 118.021 65.8421L118.358 66.7344C118.408 66.8722 118.338 67.0251 118.202 67.0755C118.172 67.0873 118.14 67.0923 118.108 67.0923L113.28 67.0368C113.145 67.0335 113.015 66.9847 112.912 66.899C112.016 66.1613 110.982 66.0135 109.81 66.4554C109.501 66.568 109.319 66.7764 109.264 67.0772C109.228 67.2671 109.299 67.3914 109.478 67.4519C109.738 67.541 109.97 67.5578 110.173 67.5023L113.602 67.8132C113.911 67.9258 114.204 67.9695 114.483 67.9459C116.164 68.1745 117.498 68.9004 118.488 70.1238C118.482 72.1823 117.663 73.6778 116.032 74.6088C113.135 76.2606 108.584 75.78 105.741 74.6088C105.667 74.4844 105.562 74.3887 105.422 74.3248C105.267 74.0593 105.075 73.8408 104.845 73.6711C104.642 73.5216 104.545 73.5737 104.555 73.8274L104.6 74.9617C104.608 75.1768 104.443 75.3566 104.233 75.3633C104.228 75.3633 104.223 75.3633 104.22 75.3633L90.6863 75.3683L90.1643 75.2944C90.0092 75.2726 89.9341 75.1835 89.9375 75.0239L89.9742 73.9534L89.9291 71.7521C89.9225 71.4446 89.8491 71.4261 89.7073 71.6966C89.6106 71.8798 89.5222 72.0697 89.4438 72.268C88.8035 73.9064 87.3826 74.8575 85.5698 75.2558C82.4178 75.9481 79.4677 75.6843 76.7177 74.4643L75.3969 73.004L74.9749 72.0562C74.9382 71.9756 74.8448 71.9403 74.7665 71.9756C74.7381 71.989 74.7131 72.0109 74.6981 72.0378C74.2211 72.8292 73.6941 73.4796 72.9904 74.0425C72.8186 74.1836 72.8269 74.3097 73.0171 74.4223L73.7792 74.8659C73.7242 74.8323 73.6808 74.8911 73.6474 75.039L71.0909 76.1329C70.8791 76.2237 70.6339 76.1985 70.4421 76.064L69.665 75.5145C69.5316 75.4238 69.3848 75.3902 69.2247 75.4137C66.3096 75.901 63.4929 75.5582 60.7778 74.3836C59.7822 73.5636 59.0284 72.5604 58.5165 71.3774L58.308 70.3523C58.2563 70.0935 58.1396 70.0582 57.9578 70.2464C57.7193 70.5002 57.4475 70.68 57.1456 70.7858C56.9071 70.8682 56.8771 70.9976 57.0589 71.174C57.2824 71.3908 57.5492 71.537 57.8577 71.6126C58.0395 71.9638 58.2513 72.2478 58.4931 72.4646C58.5598 73.3586 58.7599 74.2005 59.0918 74.9902C59.1468 75.1213 59.0851 75.2709 58.9534 75.3263C58.9217 75.3398 58.8867 75.3465 58.8517 75.3465L54.3422 75.2642C53.982 74.7298 53.6718 73.9501 53.4116 72.9217C52.948 72.2781 52.3126 71.9302 51.5038 71.8781C50.2981 71.8042 49.089 71.7941 47.8749 71.8462C47.7198 71.8529 47.6448 71.9336 47.6481 72.0882L47.7065 75.0306C47.7098 75.2003 47.5747 75.3398 47.4063 75.3415C47.4063 75.3415 47.4029 75.3415 47.4013 75.3415L38.304 75.3146C37.9138 75.202 37.5869 74.8205 37.3234 74.1702C37.2 73.6274 36.9332 73.3569 36.5246 73.3602C34.1531 73.372 31.8817 73.3653 29.707 73.3367C29.4285 73.3317 29.17 73.4829 29.04 73.7299L28.3045 75.1079C28.2194 75.2658 28.0894 75.3465 27.9143 75.3465H19.3673C19.1288 75.3919 18.9337 75.3835 18.7853 75.3196C18.6436 75.2558 18.5718 75.1465 18.5718 74.9902L18.5668 69.7373C18.6936 69.1911 18.6786 68.682 18.5218 68.2081C18.4551 68.0132 18.37 68.0031 18.2667 68.1812L14.3242 75.0003C14.1941 75.2238 13.9573 75.3616 13.7022 75.3616L10.5102 75.3347C10.2617 75.2675 10.0599 75.0944 9.9065 74.8138C8.86419 72.92 7.73349 70.9757 6.51441 68.9844C6.43936 68.6332 6.24758 68.3308 5.94239 68.0737C5.80564 67.9611 5.73893 67.993 5.74227 68.1694L5.78396 75.1936C5.78396 75.2843 5.71058 75.3583 5.62053 75.3583L1.42794 75.3667C1.23949 75.3885 1.05271 75.3667 0.864261 75.3078C0.724175 75.2658 0.655799 75.1684 0.655799 75.0188L0.647461 63.4643C0.647461 63.2744 0.802556 63.1215 0.992674 63.1215L6.31929 63.1164C6.59112 63.1164 6.84461 63.2576 6.99137 63.4912L12.0411 71.4815C12.1079 71.5857 12.2463 71.6143 12.3497 71.5471C12.3747 71.5303 12.398 71.5084 12.4147 71.4815L17.4928 63.3719C17.5912 63.2122 17.7647 63.1148 17.9515 63.1164L23.3698 63.1215C23.5115 63.1215 23.635 63.2206 23.66 63.3601L23.75 63.8457L23.7417 73.6022C23.7417 73.7703 23.8067 73.8005 23.9368 73.693C24.1703 73.5014 24.3504 73.2443 24.4771 72.925L30.5576 63.3517C30.6443 63.2122 30.7977 63.1265 30.9611 63.1282L35.057 63.1198C35.2088 63.1198 35.3372 63.1752 35.4422 63.2845L36.0326 63.9029L42.2548 73.9013C42.3048 73.977 42.4049 73.9988 42.4816 73.9484C42.5083 73.9316 42.5283 73.9064 42.5416 73.8778C42.575 73.8022 42.5716 73.6862 42.5333 73.53L42.5199 63.3937C42.5199 63.2441 42.6417 63.1232 42.7918 63.1232C45.7986 63.1114 48.8171 63.1164 51.8473 63.1416C54.2138 63.1601 57.706 63.4945 58.8417 65.8958C58.93 66.0857 59.0284 66.0908 59.1368 65.9143C61.053 62.8022 65.6859 62.6375 69.0963 63.0307C71.2426 63.2811 72.9537 64.1465 74.2278 65.6303C74.4029 65.8353 74.4863 65.8017 74.478 65.5295L74.4146 63.4878C74.4079 63.2475 74.5263 63.1265 74.7681 63.1265L79.2459 63.1215C79.4393 63.1215 79.5411 63.2206 79.5494 63.4189L79.5761 63.9398L79.5778 63.9466ZM48.4686 68.8147C49.8278 68.7962 51.1035 68.7525 52.2976 68.682C53.47 68.6114 54.0287 68.1543 53.9787 67.3091C54.0037 67.1898 53.9503 67.0368 53.8202 66.847C53.4884 66.3714 52.4894 66.2437 51.9624 66.2386C50.5999 66.2302 49.2374 66.2185 47.8749 66.2067C47.7748 66.2034 47.6898 66.279 47.6748 66.3798C47.4179 68.2568 47.6831 69.0668 48.4703 68.8147H48.4686ZM64.4184 71.7168C65.3056 72.1806 66.1812 72.3654 67.0434 72.2713C67.2819 72.2444 67.3169 72.1453 67.1484 71.9739L66.5764 71.3841C66.493 71.3001 66.493 71.1639 66.5781 71.0782C66.5931 71.0631 66.6081 71.0514 66.6264 71.0413L67.6121 70.4834C67.8072 70.3741 68.0457 70.3825 68.2291 70.5069L69.188 71.1606C69.3298 71.2547 69.4482 71.2295 69.5416 71.0833C70.3071 69.8599 70.287 68.6114 69.4782 67.3393C68.6093 66.3109 67.5353 65.9479 66.2579 66.2504C63.0843 67.0032 62.4722 68.8265 64.4184 71.7185V71.7168ZM32.3003 70.3036L34.8385 70.2666C35.0136 70.2632 35.0587 70.1859 34.9703 70.033L33.6528 67.7947C33.5828 67.4233 33.4293 67.1562 33.1892 66.9932C33.0474 66.8991 32.9324 66.9259 32.844 67.0755L31.1596 70.0045C31.0712 70.154 31.1129 70.2532 31.283 70.3019C31.6132 70.3926 31.9517 70.3926 32.3003 70.3019V70.3036Z" fill="white"/>
<path d="M23.7495 63.8508C23.9463 63.8928 24.1064 63.9634 24.2315 64.0608C24.3533 64.1583 24.4133 64.286 24.4133 64.4456L24.4767 72.9301C24.3499 73.251 24.1698 73.5064 23.9363 73.698C23.8063 73.8056 23.7412 73.7736 23.7412 73.6073L23.7495 63.8508Z" fill="black"/>
<path d="M36.0339 63.9045C38.1619 66.973 40.1915 70.1002 42.1193 73.2863C42.2077 73.4325 42.3444 73.5148 42.5329 73.5333C42.5729 73.6896 42.5746 73.8055 42.5412 73.8812C42.5045 73.9635 42.4078 74.0022 42.3244 73.9635C42.2961 73.9501 42.2711 73.9299 42.2544 73.903L36.0322 63.9045H36.0339Z" fill="black"/>
<path d="M79.5771 63.9465C79.7956 63.9096 79.9774 63.923 80.1225 63.9885C80.2642 64.049 80.3393 64.1583 80.3443 64.3128L80.5978 71.9235C79.919 71.4261 79.5771 70.5942 79.5721 69.4297C79.5638 67.5964 79.5638 65.7681 79.5771 63.9482V63.9465Z" fill="black"/>
<path d="M103.947 63.9331C104.431 63.8356 104.675 64.1885 104.675 64.9951C104.223 65.59 103.912 66.242 103.744 66.9495C101.271 66.9948 98.8076 66.9948 96.3545 66.9495C95.6157 66.9377 95.4556 67.3023 95.8725 68.0434C95.7024 68.077 95.5356 68.0787 95.3688 68.0485C95.1787 68.0115 95.0837 67.8972 95.087 67.7056L95.1054 66.5663C95.1087 66.3344 95.2237 66.2185 95.4506 66.2185H103.384C103.634 66.2185 103.839 66.0236 103.851 65.7749L103.946 63.9348L103.947 63.9331Z" fill="black"/>
<path d="M118.022 65.8403C118.542 66.3613 118.834 66.9309 118.899 67.5476C118.914 67.7039 118.844 67.7846 118.69 67.7896L114.484 67.9459C114.206 67.9711 113.912 67.9257 113.604 67.8131C112.542 66.7814 111.397 66.6789 110.175 67.5023C109.972 67.5577 109.74 67.5409 109.48 67.4518C109.301 67.3914 109.229 67.2653 109.266 67.0771C109.321 66.7746 109.503 66.568 109.811 66.4554C110.984 66.0134 112.018 66.1613 112.913 66.899C113.017 66.9847 113.145 67.0334 113.282 67.0368L118.11 67.0922C118.255 67.0922 118.375 66.9763 118.375 66.8301C118.375 66.7982 118.37 66.7662 118.358 66.736L118.022 65.8437V65.8403Z" fill="black"/>
<path d="M53.9768 67.3107C52.2941 66.9814 50.5397 66.8637 48.7135 66.9578C48.5618 66.9645 48.4684 67.0418 48.4317 67.1914C48.2983 67.7258 48.31 68.2669 48.4684 68.8164C47.6812 69.0701 47.4161 68.2585 47.6729 66.3814C47.6862 66.2789 47.773 66.205 47.873 66.2084C49.2355 66.2201 50.598 66.2319 51.9605 66.2403C52.4875 66.2453 53.4865 66.373 53.8183 66.8486C53.9484 67.0385 54.0018 67.1914 53.9768 67.3107Z" fill="black"/>
<path d="M69.4779 67.3376C68.7392 67.0839 68.0104 66.9663 67.2933 66.9847C65.6856 67.0183 64.66 67.793 64.2147 69.3088C64.0629 69.828 64.1313 70.6296 64.4198 71.7151C62.4736 68.8231 63.0857 66.9999 66.2593 66.247C67.5367 65.9446 68.6107 66.3075 69.4796 67.3359L69.4779 67.3376Z" fill="black"/>
<path d="M33.6545 67.7947L32.3003 70.3019C31.9518 70.3926 31.6132 70.3926 31.283 70.3019C31.1129 70.2532 31.0729 70.154 31.1596 70.0045L32.844 67.0755C32.9324 66.9259 33.0474 66.899 33.1892 66.9932C33.4277 67.1545 33.5828 67.4217 33.6528 67.7947H33.6545Z" fill="black"/>
<path d="M6.51434 68.9895L6.42428 75.9263C6.42428 76.0792 6.34924 76.1548 6.19748 76.1548C4.67487 76.1817 3.17228 76.1548 1.69303 76.0725C1.4212 76.0573 1.33281 75.8238 1.42954 75.3717L5.62212 75.3633C5.71218 75.3633 5.78556 75.2894 5.78556 75.1986L5.74386 68.1745C5.74053 67.9981 5.80724 67.9661 5.94399 68.0787C6.24917 68.3341 6.44096 68.6383 6.51601 68.9895H6.51434Z" fill="black"/>
<path d="M18.5677 69.7439L14.9804 75.8892C14.8771 76.0657 14.6903 76.1732 14.4901 76.1732H11.2665C11.1231 76.1732 10.988 76.0976 10.9129 75.9716L10.5127 75.3397L13.7047 75.3666C13.9598 75.3666 14.1983 75.2288 14.3267 75.0053L18.2691 68.1862C18.3725 68.0098 18.4576 68.0182 18.5243 68.2131C18.6811 68.6853 18.6961 69.1961 18.5693 69.7423L18.5677 69.7439Z" fill="black"/>
<path d="M102.585 68.976C102.797 68.934 102.969 68.9524 103.099 69.0348C103.236 69.1238 103.299 69.2583 103.289 69.4381C103.267 69.9691 103.259 70.4564 103.262 70.9017C103.266 71.1303 103.154 71.2445 102.925 71.2445H96.0946C95.9278 71.2445 95.811 71.3218 95.7443 71.4781C95.6443 71.71 95.6893 71.9839 95.8811 72.3015C95.681 72.3654 95.4892 72.3603 95.3041 72.2881C95.149 72.2276 95.0739 72.1133 95.0773 71.9453L95.1039 70.6732C95.1073 70.5152 95.1873 70.4346 95.3441 70.4346L102.093 70.4531C102.362 70.4531 102.579 70.2363 102.579 69.9674L102.584 68.9743L102.585 68.976Z" fill="black"/>
<path d="M104.96 69.7675C107.462 70.7187 109.946 70.7556 112.558 70.9842C112.77 71.001 112.928 71.1892 112.912 71.4026C112.912 71.4211 112.907 71.4412 112.903 71.4597C112.861 71.6328 112.78 71.7269 112.663 71.7387C111.394 71.5958 110.145 71.49 108.912 71.4228C108.007 71.374 107.3 71.2413 106.791 71.0245C106.064 70.7103 105.454 70.2902 104.962 69.7659L104.96 69.7675Z" fill="black"/>
<path d="M58.5148 71.3824C58.243 71.3757 58.0229 71.4564 57.8561 71.621C57.5476 71.5454 57.2807 71.3975 57.0573 71.1825C56.8755 71.006 56.9038 70.8766 57.144 70.7943C57.4475 70.6867 57.7177 70.5069 57.9561 70.2549C58.1379 70.065 58.2547 70.1003 58.3064 70.3607L58.5148 71.3858V71.3824Z" fill="black"/>
<path d="M118.488 70.1237C119.369 71.9453 119.113 73.4711 117.721 74.7045C115.455 76.7093 111.654 76.6908 108.734 76.1329C107.475 75.8943 106.477 75.3868 105.74 74.6087C108.584 75.78 113.133 76.2606 116.032 74.6087C117.664 73.6778 118.483 72.1839 118.488 70.1237Z" fill="black"/>
<path d="M89.9723 73.9551C89.5938 74.1651 89.2752 74.4643 89.0134 74.8524C88.835 75.1179 88.2446 75.4137 87.2423 75.7397C85.1744 76.4135 82.923 76.5749 80.4898 76.2203C78.9155 75.9884 77.6581 75.4036 76.7158 74.4676C79.4642 75.6876 82.416 75.9514 85.5679 75.2591C87.3807 74.8608 88.8016 73.9097 89.442 72.2713C89.5204 72.073 89.6088 71.8831 89.7055 71.7C89.8472 71.4277 89.9223 71.4462 89.9273 71.7554L89.9723 73.9568V73.9551Z" fill="black"/>
<path d="M53.41 72.9301C51.8207 72.6276 50.2413 72.5537 48.6737 72.7066C48.4653 72.7285 48.3602 72.8444 48.3602 73.0544L48.3785 75.891C48.3819 76.0456 48.2585 76.1716 48.1067 76.175C48.1067 76.175 48.1034 76.175 48.1017 76.175H39.2362C39.0811 76.175 38.9477 76.1246 38.8327 76.0237C38.6142 75.8322 38.4391 75.5986 38.3057 75.323L47.4029 75.3499C47.5714 75.3499 47.7065 75.2121 47.7065 75.0441C47.7065 75.0441 47.7065 75.0407 47.7065 75.039L47.6481 72.0966C47.6448 71.9403 47.7215 71.8597 47.8749 71.8546C49.089 71.8025 50.2981 71.8126 51.5038 71.8866C52.3126 71.9387 52.948 72.2865 53.4116 72.9301H53.41Z" fill="black"/>
<path d="M75.3944 73.0073L73.7784 74.8692L73.0162 74.4255C72.8261 74.313 72.8161 74.1852 72.9896 74.0458C73.6933 73.4828 74.2203 72.8325 74.6973 72.041C74.7406 71.9671 74.8357 71.9436 74.9107 71.9889C74.9391 72.0057 74.9608 72.0309 74.9741 72.0595L75.396 73.0073H75.3944Z" fill="black"/>
<path d="M58.4907 72.4713C59.1478 73.4073 59.5564 74.5466 59.7165 75.8859C59.7382 76.0775 59.6531 76.175 59.463 76.175H55.4705C55.2704 76.175 55.102 76.101 54.9669 75.9548L54.3398 75.2726L58.8493 75.3549C58.9927 75.3549 59.1095 75.2406 59.1095 75.0995C59.1095 75.0642 59.1028 75.0306 59.0894 74.9987C58.7559 74.2089 58.5558 73.367 58.4907 72.473V72.4713Z" fill="black"/>
<path d="M37.3233 74.1785L30.2923 74.187C30.1038 74.187 29.9654 74.271 29.8737 74.439L29.0749 75.9211C28.9915 76.0757 28.8297 76.1732 28.6529 76.1732H19.634C19.4923 76.1732 19.4006 76.1026 19.3622 75.9631C19.3138 75.7733 19.3155 75.5716 19.3672 75.3548H27.9142C28.0893 75.3548 28.2193 75.2759 28.3044 75.1162L29.0398 73.7383C29.1716 73.4913 29.4284 73.3383 29.7069 73.3451C31.8816 73.3719 34.153 73.3803 36.5245 73.3686C36.933 73.3652 37.1999 73.6358 37.3233 74.1785Z" fill="black"/>
<path d="M105.423 74.3248C105.275 74.4626 105.252 74.8894 105.355 75.6052C105.407 75.98 105.245 76.1699 104.87 76.1732C100.4 76.1799 95.8359 76.1766 91.173 76.1648C90.9312 76.1648 90.7794 76.0993 90.7194 75.9682C90.6527 75.8254 90.6426 75.6254 90.6877 75.3683L104.221 75.3633C104.431 75.3633 104.603 75.1902 104.603 74.9751C104.603 74.97 104.603 74.965 104.603 74.9616L104.558 73.8274C104.55 73.5736 104.646 73.5215 104.848 73.6711C105.078 73.8425 105.27 74.0593 105.425 74.3248H105.423Z" fill="black"/>
<path d="M60.7754 74.3886C63.4904 75.5633 66.3071 75.9061 69.2223 75.4187C69.3824 75.3935 69.5291 75.4271 69.6625 75.5196L70.4397 76.0691C70.6315 76.2035 70.8766 76.2287 71.0884 76.138L73.645 75.044C73.7384 75.3246 73.8635 75.4725 74.0169 75.4876C74.6189 75.5397 74.6473 75.696 74.0986 75.9581C73.4232 76.2841 72.6961 76.6135 71.9189 76.9462C71.7638 77.0134 71.6087 77.0168 71.452 76.9546C71.1184 76.8202 70.8283 76.632 70.5798 76.3867C70.448 76.2589 70.2646 76.2001 70.0845 76.227C69.0705 76.3732 67.8364 76.4219 66.3838 76.3732C64.1341 76.2976 62.2646 75.6355 60.7754 74.387V74.3886Z" fill="black"/>
</g>
<defs>
<clipPath id="clip0_62_11">
<rect width="119" height="77" fill="white"/>
</clipPath>
</defs>
</svg>
